<svg xmlns="http://www.w3.org/2000/svg" xmlns:xlink="http://www.w3.org/1999/xlink"
     version="1.1" x="0px" y="0px" viewBox="0 0 60 60" style="enable-background:new 0 0 60 60;" xml:space="preserve"><style type="text/css">
	.st0{fill:none;stroke:#000000;stroke-width:1.6;stroke-linecap:round;stroke-linejoin:round;stroke-miterlimit:10;}
</style>
    <path class="st0"
          d="M33.7,20.2c1.1,1.1,1.9,2.6,1.9,4.3c0,3.2-2.6,5.8-5.8,5.8s-5.8-2.6-5.8-5.8s2.6-5.8,5.8-5.8 M40.8,41.4  c0-6.1-5-11.1-11.1-11.1s-11.1,5-11.1,11.1H40.8z M42.9,22.7c-2.6,0-4.8,2.1-4.8,4.8s2.1,4.8,4.8,4.8s4.8-2.1,4.8-4.8  S45.6,22.7,42.9,22.7z M40.8,41.4H52c0-2.1-0.7-4-1.9-5.5 M48.3,34.1c-1.5-1.1-3.4-1.8-5.4-1.8c-1.9,0-3.6,0.6-5.1,1.6 M11.8,27.5  c0,2.6,2.1,4.8,4.8,4.8s4.8-2.1,4.8-4.8s-2.1-4.8-4.8-4.8S11.8,24.9,11.8,27.5z M8.7,36.8c-0.8,1.3-1.2,2.9-1.2,4.5h11.2 M21.6,33.9  c-1.4-1-3.2-1.6-5.1-1.6c-2.5,0-4.7,1-6.4,2.6"/>
</svg>