<svg xmlns="http://www.w3.org/2000/svg" xmlns:xlink="http://www.w3.org/1999/xlink"
     version="1.1" x="0px" y="0px" viewBox="0 0 100 100"
     enable-background="new 0 0 100 100"
     xml:space="preserve"><g><g><g><g><path
        d="M95.1,56.5l-0.7,0.7c-2.8,2.8-5.7,5.7-8.5,8.5l-4.6,4.6c-0.5,0.5-1,0.7-1.5,0.7c-1,0-2.1-0.8-2.5-1.8
        c-0.4-0.8-0.2-1.6,0.5-2.3c1-1,1.9-1.9,2.9-2.9l6.6-6.6h-5.5h-6.1h-19c-2.1,0-2.2-1.9-2.2-2.4c0-0.6,0.2-2.4,2.2-2.4h23.8h4.8      h2.1l-1.3-1.3l-3-3l-5.2-5.2c-0.7-0.7-0.9-1.5-0.5-2.3c0.4-1,1.5-1.8,2.5-1.8c0.5,0,1,0.2,1.5,0.7l3.4,3.4l3.3,3.3l6.9,6.9      c0.5,0.5,0.7,1,0.7,1.6v0.1v0.2c0,0.4-0.1,0.9-0.5,1.3l-0.1,0.1C95.2,56.4,95.1,56.4,95.1,56.5z"/>
    <path d="M71.9,65c-8.5,5-16.6,9.8-21.2,19c-0.4,0.8-1.1,1.1-1.7,1c-0.7,0.1-1.4-0.2-1.7-1c-5.4-10.7-15.4-15-24.8-21.2      C14.4,57.6,9.6,50.4,8.7,40.9c-0.8-8.6,3.7-16.4,11.5-20c5.8-2.7,13-2.6,18.9-0.3c4.8,1.9,8.1,5.3,9.9,9.6      c2.4-5.2,6.7-9,12.8-10.5c6.4-1.6,13.5-0.8,19,2.9c5.6,3.8,8.3,9.6,8.4,15.9l-3.3-3.3c-0.4-0.4-0.8-0.8-1.3-1.1      C82.4,27.3,75.7,23,68.2,23c-9.4,0-16.4,5.7-17.2,15.2c0,0.2-0.1,0.3-0.1,0.4c0-0.1,0-0.3,0-0.4c0,0.6-0.3,1.1-0.7,1.4      c-0.4,0.3-0.9,0.5-1.3,0.5c-0.8-0.1-1.7-0.6-2-1.5c0-0.1-0.1-0.3-0.1-0.4C46,28.5,38.8,22.8,29.3,23      c-8.8,0.2-16.5,6.3-16.6,15.5c-0.1,12,7.9,18.6,17.3,24c7.4,4.3,14.3,9,18.9,16.3c4.4-6.8,10.8-11.4,17.8-15.5"/>
    <path d="M50.9,38.2c0,0.2,0,0.3,0,0.4c-0.1,0.4-0.4,0.8-0.7,1C50.6,39.3,50.9,38.8,50.9,38.2z"/>
    <path d="M50.3,39.6c0.3-0.2,0.5-0.6,0.7-1c-0.1,1.1-1,1.6-2,1.5C49.4,40.1,49.9,40,50.3,39.6z"/>
    <path d="M48.9,40.1c-1.1,0.1-2.1-0.5-2-1.9c0,0.2,0,0.3,0.1,0.4C47.2,39.6,48,40.1,48.9,40.1z"/></g></g></g></g>
</svg>