<svg xmlns="http://www.w3.org/2000/svg" xmlns:xlink="http://www.w3.org/1999/xlink"
     version="1.1" x="0px" y="0px" viewBox="0 0 100 100" enable-background="new 0 0 100 100" xml:space="preserve"><path d="M50,96.499c-0.688,0-1.32-0.347-1.688-0.928l-4.53-7.113c-0.204-0.318-0.312-0.69-0.312-1.073  c0-0.684,0.345-1.313,0.921-1.685c0.323-0.206,0.695-0.315,1.078-0.315c0.687,0,1.317,0.345,1.687,0.922L48,87.635V52H12.364  l1.325,0.844c0.45,0.286,0.762,0.731,0.878,1.254c0.115,0.523,0.021,1.06-0.266,1.51c-0.373,0.579-1.003,0.924-1.687,0.924  c-0.381,0-0.752-0.108-1.074-0.312l-7.115-4.531C3.846,51.317,3.5,50.687,3.5,50s0.346-1.317,0.925-1.687l7.116-4.532  c0.321-0.204,0.692-0.312,1.073-0.312c0.688,0,1.318,0.345,1.688,0.923c0.287,0.449,0.382,0.985,0.267,1.508  c-0.117,0.524-0.429,0.969-0.879,1.255L12.364,48H48V12.364l-0.844,1.325c-0.371,0.58-1.001,0.926-1.688,0.926  c-0.381,0-0.752-0.108-1.075-0.314c-0.579-0.371-0.924-1.001-0.924-1.687c0-0.38,0.108-0.751,0.312-1.072l4.531-7.116  C48.683,3.846,49.313,3.5,50,3.5s1.317,0.346,1.687,0.925l4.532,7.116c0.59,0.93,0.315,2.168-0.611,2.76  c-0.323,0.206-0.694,0.314-1.076,0.314c-0.688,0-1.318-0.346-1.688-0.926l-0.845-1.326V48h35.638l-1.325-0.844  c-0.45-0.286-0.763-0.731-0.88-1.253c-0.115-0.525-0.021-1.061,0.268-1.51c0.368-0.578,0.999-0.923,1.688-0.923  c0.381,0,0.751,0.107,1.07,0.31l7.117,4.533C96.154,48.683,96.5,49.314,96.5,50c0,0.686-0.345,1.315-0.923,1.686l-7.117,4.533  c-0.329,0.205-0.699,0.312-1.074,0.312c-0.687,0-1.317-0.345-1.687-0.923c-0.288-0.452-0.383-0.987-0.268-1.508  c0.117-0.524,0.43-0.971,0.88-1.257L87.637,52H51.999v35.636l0.845-1.326c0.371-0.579,1.002-0.925,1.688-0.925  c0.381,0,0.752,0.108,1.074,0.312c0.928,0.595,1.203,1.833,0.613,2.761l-4.532,7.115C51.319,96.152,50.688,96.499,50,96.499z"/>
</svg>