<svg xmlns="http://www.w3.org/2000/svg" xmlns:xlink="http://www.w3.org/1999/xlink"
     version="1.1" x="0px" y="0px" viewBox="0 0 90 90" enable-background="new 0 0 90 90" xml:space="preserve">
    <path fill-rule="evenodd" clip-rule="evenodd"
          d="M42.6,8.8c0-0.633-0.05-1.167-0.15-1.6c-0.167-1.033-0.467-1.65-0.9-1.85  c-0.633,0.2-2.216,4.017-4.75,11.45c-0.03,0.121-0.047,0.246-0.05,0.375c0.004-0.092,0.021-0.167,0.05-0.225  C39.4,12.149,41.333,9.433,42.6,8.8z M48.5,7.2c-0.066,0.433-0.134,0.983-0.2,1.65c1.3,0.633,3.233,3.367,5.8,8.2  c0,0.066,0.051,0.117,0.15,0.15c-0.1-0.1-0.15-0.184-0.15-0.25c-2.466-7.5-4.033-11.333-4.699-11.5C49,5.583,48.7,6.167,48.5,7.2z   M48,11.149c-0.066,0-0.133,0.017-0.2,0.05c-0.1,0.066-0.216,0.1-0.35,0.1c0.1,0.033,0.149,0.117,0.149,0.25  c-0.133,0.433-0.199,1.1-0.199,2c0,1.633,0.149,3.066,0.449,4.3c0.167,0.867,0.534,1.867,1.101,3c0.467,1.167,0.767,1.9,0.899,2.2  h0.101c0.267,0.433,0.399,1.233,0.399,2.4c0,0.867,0.084,1.883,0.25,3.05c0.2,1.2,0.301,2.267,0.301,3.2  c-0.067,0.633,0.017,1.533,0.25,2.7c2.233,0.8,3.916,3.284,5.05,7.45c0.267,1.3,0.583,3.084,0.95,5.35  c0.267,1.867,0.483,3,0.649,3.4c0.033,0.333-0.017,0.6-0.149,0.8c-0.134,0.334-0.334,0.566-0.601,0.7  c-0.267,0.033-0.55,0.017-0.85-0.05c-0.267-0.2-0.45-0.417-0.55-0.65c-0.167-0.434-0.417-1.733-0.75-3.899  c-0.301-2.134-0.617-3.833-0.95-5.101c-0.834-3.5-2.15-5.483-3.95-5.95h-0.05c-0.2-0.067-0.4-0.1-0.601-0.1  c-0.433,0-0.733,0.183-0.899,0.55c-0.3,0.567-0.45,1.35-0.45,2.35c0,0.767,0.033,1.467,0.1,2.1c0.101,0.267,0.233,0.75,0.4,1.45  c0.434,1.433,0.65,3.183,0.65,5.25c0,2.3-0.233,4.583-0.7,6.85c-0.233,1.233-0.384,2.017-0.45,2.351c-0.133,0.833-0.2,1.666-0.2,2.5  c0,3.333,0.816,6.333,2.45,9c1.4,2.267,3.533,4.5,6.4,6.699c1.933,1.367,4.899,3.25,8.899,5.65c3.967,2.366,6.9,4.2,8.8,5.5  c4.801-3.233,8.384-7.45,10.75-12.65c-1.733-0.433-2.716-0.699-2.949-0.8H82.1c-1.666-0.5-3.149-1-4.449-1.5  c-3.5-1.2-6.5-2.717-9-4.55c-2.7-1.967-4.184-3.65-4.45-5.05c-0.334-1.2-0.867-4.95-1.601-11.25c-0.733-6.167-1.75-11.367-3.05-15.6  c-0.5-1.7-0.95-3.1-1.35-4.2v-0.15c-0.5-1.533-0.851-2.483-1.05-2.85v-0.05c-0.367-0.7-1.051-2.083-2.051-4.15  c-1.199-2.333-2.183-4.25-2.949-5.75C50.017,14.016,48.634,11.716,48,11.149z M43.55,13.55c0-0.9-0.017-1.567-0.05-2  c-0.1-0.3-0.2-0.5-0.3-0.6c-0.5,0.167-1.95,2.517-4.35,7.05c-0.8,1.434-1.783,3.333-2.95,5.7c-1.033,2.033-1.733,3.383-2.1,4.05  c-0.167,0.467-0.533,1.434-1.1,2.9v0.05c0,0.066,0,0.117,0,0.15c-0.333,1.067-0.75,2.483-1.25,4.25c-1.3,4.1-2.317,9.25-3.05,15.45  c-0.767,6.333-1.3,10.1-1.6,11.3c-0.267,1.4-1.75,3.05-4.45,4.95c-2.533,1.8-5.533,3.283-9,4.45c-1.333,0.5-2.833,0.966-4.5,1.399  C8.617,72.75,7.633,73.033,5.9,73.5c2.4,5.199,5.934,9.449,10.6,12.75c1.933-1.301,4.9-3.117,8.9-5.45  c4.033-2.267,6.983-4.101,8.85-5.5c2.867-2.2,5.017-4.417,6.45-6.65c1.633-2.6,2.45-5.566,2.45-8.899c0-0.834-0.05-1.667-0.15-2.5  c-0.033-0.334-0.183-1.134-0.45-2.4c-0.5-2.3-0.75-4.566-0.75-6.8c0-2.067,0.217-3.817,0.65-5.25c0.2-0.7,0.316-1.217,0.35-1.55  c0.133-0.566,0.2-1.233,0.2-2c0-1-0.15-1.783-0.45-2.35c-0.233-0.367-0.533-0.566-0.9-0.6c-0.167,0-0.333,0.017-0.5,0.05h-0.1  c-1.733,0.4-3.083,2.383-4.05,5.95c-0.3,1.2-0.633,2.917-1,5.149c-0.3,2.101-0.517,3.384-0.65,3.851  c-0.133,0.267-0.333,0.467-0.6,0.6c-0.333,0.134-0.633,0.134-0.9,0c-0.267-0.1-0.434-0.3-0.5-0.6c-0.233-0.267-0.283-0.533-0.15-0.8  c0.133-0.367,0.333-1.517,0.6-3.45c0.367-2.233,0.7-4,1-5.3c1.067-4.267,2.767-6.733,5.1-7.4c0.133-1.133,0.2-2.033,0.2-2.7  c0-0.933,0.1-2,0.3-3.2c0.167-1.133,0.25-2.133,0.25-3c0-1.167,0.133-1.967,0.4-2.4H41c0.233-0.367,0.617-1.133,1.15-2.3  c0.434-1.066,0.75-2.033,0.95-2.9C43.4,16.616,43.55,15.183,43.55,13.55z M87.65,73.1c0.1,0.167,0.083,0.366-0.051,0.6  c-2.666,6.367-6.866,11.434-12.6,15.2C74.833,88.966,74.616,89,74.35,89c-0.199,0-0.399-0.067-0.6-0.2  c-1.833-1.3-4.934-3.217-9.3-5.75c-4.134-2.467-7.184-4.417-9.15-5.851c-3.1-2.333-5.434-4.767-7-7.3  c-1.833-3.033-2.75-6.416-2.75-10.149c0-0.934,0.101-1.867,0.3-2.801c0.033-0.399,0.167-1.233,0.4-2.5  c0.434-2.1,0.65-4.233,0.65-6.399c0-1.8-0.15-3.351-0.45-4.65c-0.267-0.8-0.4-1.35-0.4-1.65c-0.2-0.733-0.3-1.566-0.3-2.5  c0-1.433,0.233-2.55,0.7-3.35c0.566-1.033,1.366-1.617,2.399-1.75c-0.166-1-0.25-1.833-0.25-2.5c0-0.8-0.066-1.733-0.199-2.8  c-0.2-1.267-0.301-2.4-0.301-3.4c0-0.6-0.033-1.017-0.1-1.25c-0.2-0.367-0.584-1.217-1.15-2.55c-0.533-1.233-0.934-2.316-1.199-3.25  c-0.066-0.367-0.117-0.683-0.15-0.95c-0.1,0.267-0.184,0.566-0.25,0.9c-0.233,0.967-0.6,2.067-1.1,3.3  c-0.566,1.3-0.95,2.117-1.15,2.45c-0.1,0.233-0.15,0.683-0.15,1.35c0,0.967-0.083,2.066-0.25,3.3c-0.167,1.1-0.25,2.05-0.25,2.85  c0,0.667-0.05,1.483-0.15,2.45c1,0.2,1.767,0.816,2.3,1.85c0.433,0.8,0.65,1.917,0.65,3.35c0,0.934-0.033,1.767-0.101,2.5  c-0.1,0.3-0.267,0.833-0.5,1.6c-0.367,1.334-0.55,2.9-0.55,4.7c0,2.166,0.25,4.3,0.75,6.399c0.233,1.267,0.367,2.067,0.4,2.4  c0.199,1,0.3,1.967,0.3,2.9c-0.067,3.733-1.017,7.1-2.85,10.1c-1.567,2.467-3.9,4.884-7,7.25c-1.934,1.4-4.95,3.283-9.05,5.65  c-4.4,2.5-7.517,4.433-9.35,5.8c-0.233,0.1-0.434,0.149-0.6,0.149c-0.233,0-0.434-0.05-0.6-0.149c-5.767-3.9-9.983-9.033-12.65-15.4  c-0.1-0.2-0.133-0.399-0.1-0.6c0.067-0.233,0.167-0.417,0.3-0.55c0.133-0.167,0.333-0.284,0.6-0.351  c2.467-0.666,3.833-1.05,4.1-1.149c1.667-0.434,3.117-0.867,4.35-1.301c3.267-1.133,6.1-2.55,8.5-4.25  c2.066-1.5,3.25-2.733,3.55-3.699v0.05c0.3-1.167,0.817-4.834,1.55-11c0.7-6.333,1.733-11.633,3.1-15.9  c0.5-1.7,0.95-3.117,1.35-4.25c0.4-1.966,0.867-3.75,1.4-5.35c0.934-3.333,1.833-6.233,2.7-8.7c3-8.833,5.267-13.15,6.8-12.95  c1.633-0.1,2.65,1.1,3.05,3.6c0.1,0.633,0.167,1.383,0.2,2.25c0,0.1,0,0.233,0,0.4c0.3,0.267,0.534,0.667,0.7,1.2  c0.133-0.5,0.35-0.9,0.65-1.2c0-0.167,0-0.3,0-0.4c0-0.867,0.066-1.617,0.199-2.25v0.1C46.783,4.283,47.8,3.1,49.4,3.3  c1.6-0.233,3.866,4.066,6.8,12.9c0.833,2.533,1.767,5.45,2.8,8.75c0.467,1.633,0.917,3.417,1.35,5.35l0.051,0.1  c0.333,1.1,0.767,2.483,1.3,4.15c1.333,4.333,2.366,9.649,3.1,15.95c0.7,6.166,1.217,9.816,1.55,10.949  c0.267,1.034,1.467,2.317,3.601,3.851c2.333,1.633,5.166,3.066,8.5,4.3c1.2,0.467,2.616,0.934,4.25,1.4h0.05  c0.3,0.1,1.684,0.5,4.15,1.199c0.199,0.034,0.383,0.117,0.55,0.25C87.583,72.649,87.65,72.866,87.65,73.1z"/>
</svg>