<?xml version="1.0" encoding="UTF-8" standalone="no"?>
<!DOCTYPE svg PUBLIC "-//W3C//DTD SVG 1.1//EN" "http://www.w3.org/Graphics/SVG/1.1/DTD/svg11.dtd">
<svg xmlns="http://www.w3.org/2000/svg" xmlns:xlink="http://www.w3.org/1999/xlink"
     version="1.1" width="375pt" height="110pt" viewBox="0 145 375 75">
<g enable-background="new">
<clipPath id="cp0">
<path transform="matrix(.24,0,0,.24,0,0)" d="M 0 0 L 1562.5 0 L 1562.5 1593.75 L 0 1593.75 Z " fill-rule="evenodd"/>
</clipPath>
<g clip-path="url(#cp0)">
<path transform="matrix(.75,0,0,.75,0,-1147.5)" d="M 0 1530 L 500 1530 L 500 2030 L 0 2030 Z " fill="#ffffff"/>
</g>
<clipPath id="cp1">
<path transform="matrix(.24,0,0,.24,0,0)" d="M 0 0 L 1562.5 0 L 1562.5 1562.5 L 0 1562.5 Z " fill-rule="evenodd"/>
</clipPath>
<g clip-path="url(#cp1)">
<path transform="matrix(.75,0,0,.75,0,0)" d="M 0 0 L 500 0 L 500 500 L 0 500 Z " fill="#ffffff"/>
</g>
<clipPath id="cp2">
<path transform="matrix(.24,0,0,.24,0,0)" d="M 0 0 L 1562.5 0 L 1562.5 1562.5 L 0 1562.5 Z " fill-rule="evenodd"/>
</clipPath>
<g clip-path="url(#cp2)">
<g id="Layer-1" data-name="P">
</g>
<symbol id="font_3_b">
<path d="M .358 .644 C .30866669 .644 .2656667 .635 .229 .61700007 C .193 .59966668 .163 .57666668 .139 .54800006 C .115 .52000007 .097 .48833338 .08500001 .453 C .07366667 .41766668 .068 .38266669 .068 .34800003 C .068 .30866669 .07566667 .27 .091000009 .23200003 C .10633334 .19466669 .12733335 .16133334 .154 .13200002 C .18133335 .10333333 .21300002 .080000009 .24900002 .062000004 C .285 .044666668 .324 .036000004 .36600004 .036000004 C .37800003 .036000004 .392 .037333337 .40800003 .040000004 C .42466668 .04266667 .441 .04766667 .45700003 .055000005 C .47300006 .063 .4876667 .074 .50100007 .088 C .51500007 .102 .5256667 .12033334 .53300008 .143 L .54300007 .143 L .54300007 .032 C .53300008 .032 .5223334 .03066667 .51100006 .028 C .50033339 .025333336 .48833335 .022333334 .475 .019000002 C .45766668 .014333335 .43833337 .010000001 .41700004 .0060000007 C .39633335 .002 .37433336 0 .351 0 C .293 0 .242 .010000001 .19800002 .030000002 C .154 .05 .11733333 .076000008 .088 .108 C .058666666 .14000002 .036666674 .17600002 .022000004 .21600002 C .0073333347 .2566667 0 .29766668 0 .33900003 C 0 .38033334 .0073333347 .42133335 .022000004 .462 C .036666674 .50266668 .059000005 .53900006 .089 .57100006 C .118999999 .6036667 .15666668 .63000008 .202 .65000006 C .24733335 .67 .3006667 .68 .36200003 .68 C .38400004 .68 .40366666 .678 .421 .674 C .439 .6700001 .455 .66600009 .469 .662 C .479 .6586667 .488 .656 .49600003 .65400007 C .50466677 .6526667 .5130001 .652 .521 .652 L .521 .541 L .51100006 .541 C .507 .56166669 .4996667 .5786667 .489 .592 C .47833336 .606 .46566669 .61666676 .451 .624 C .437 .63133338 .4216667 .6363333 .40500004 .639 C .38900004 .6423333 .37333334 .644 .358 .644 Z "/>
</symbol>
<symbol id="font_3_20">
<path d="M 0 .010000001 L .004999999 .010000001 C .010333333 .010000001 .015000001 .011666668 .019000002 .015000001 C .023 .019000002 .026333332 .023666667 .029 .029000001 C .032333334 .034333335 .03466667 .040000004 .036 .046000005 C .038000004 .052000006 .039000006 .05766667 .039000006 .063 L .039000006 .59800007 C .039000006 .6026667 .038000004 .60800006 .036 .614 C .03466667 .62000009 .032333334 .6256667 .029 .63100007 C .026333332 .6363334 .023 .6406667 .019000002 .64400008 C .015000001 .64800009 .010333333 .65000006 .004999999 .65000006 L 0 .65000006 L 0 .66 L .14400001 .66 L .14400001 .65000006 L .13900002 .65000006 C .13366668 .65000006 .12900001 .64800009 .125 .64400008 C .121 .6406667 .11766667 .6363334 .11500001 .63100007 C .112333338 .6256667 .11000001 .62000009 .10800001 .614 C .10666668 .60800006 .106000009 .6026667 .106000009 .59800007 L .106000009 .037 L .325 .037 C .33766667 .037 .3486667 .040000004 .35800005 .046000005 C .36733339 .052000006 .37500004 .059333337 .38100005 .068 C .3876667 .07733334 .39233337 .087000008 .39500005 .097 C .3983334 .10766667 .4 .11733333 .40000005 .126 L .41000004 .126 L .41000004 0 L 0 0 L 0 .010000001 Z "/>
</symbol>
<symbol id="font_3_25">
<path d="M .34500004 .68 C .39699999 .68 .4436667 .6706667 .485 .652 C .5263334 .634 .56133338 .60933336 .59000006 .578 C .6193333 .5473333 .64166668 .51133337 .657 .47 C .67300006 .42933334 .68100008 .3866667 .68100008 .342 C .68100008 .292 .6716667 .24599999 .65300008 .20400001 C .63500007 .16200002 .6100001 .126 .578 .096 C .546 .06600001 .5086667 .042333336 .46600003 .025000003 C .42400003 .008333334 .37900005 0 .33100004 0 C .2796667 0 .23333335 .009333334 .19200002 .028 C .15133335 .04666667 .116666678 .07133334 .088 .102000009 C .060000004 .13266668 .038333339 .16800003 .023000002 .20800002 C .0076666676 .24800001 0 .28966669 0 .333 C 0 .3756667 .0076666676 .41766668 .023000002 .45900003 C .038333339 .501 .06066667 .53833338 .09 .57100006 C .120000008 .6036667 .15633334 .63000008 .19900002 .65000006 C .24166668 .67 .29033337 .68 .34500004 .68 M .344 .035 C .38866667 .037 .42766667 .047000003 .46100004 .065000008 C .49500004 .083666678 .5233334 .107 .546 .135 C .5686667 .16366668 .58533337 .19500001 .596 .22900002 C .60733339 .263 .61300006 .29666666 .61300006 .33 C .61300006 .36666668 .6063334 .4036667 .59300008 .441 C .5796667 .47833336 .5606667 .512 .536 .542 C .51133337 .57266667 .48166669 .5973334 .44700004 .616 C .41300003 .63533338 .3746667 .64500007 .33200003 .64500007 C .29066668 .64500007 .25366668 .63566669 .22100002 .61700007 C .18833335 .59900006 .16033334 .57566669 .13700001 .547 C .11433333 .5183334 .097 .48633335 .08500001 .451 C .07300001 .41566668 .067 .381 .067 .347 C .067 .31033335 .074 .27333335 .088 .23600002 C .102000009 .19933336 .12133334 .16600001 .14600002 .136 C .17066668 .106000009 .19966668 .08166667 .23300001 .063 C .267 .044333336 .30400003 .035 .344 .035 Z "/>
</symbol>
<symbol id="font_3_30">
<path d="M .414 .185 C .414 .15166667 .40733335 .123 .394 .09900001 C .38066665 .07566667 .36333335 .056666674 .342 .042000005 C .32133333 .027333335 .29766668 .016666668 .271 .010000001 C .245 .0033333337 .21900003 0 .19300002 0 C .16633335 0 .14333335 .0026666669 .12400001 .008 C .10466668 .013333335 .08700001 .018333335 .07100001 .023000002 C .06033334 .026333334 .05066667 .029000001 .042 .031000004 C .033333336 .033666668 .024666667 .035 .015999999 .035 L .015999999 .149 L .026 .149 C .026 .123666677 .032333334 .10333335 .044999999 .08800001 C .058333335 .07333333 .07366667 .062000004 .091000009 .054000006 C .10833335 .046000005 .12566668 .04066667 .143 .038000004 C .16033335 .036000004 .17300003 .035 .18100001 .035 C .20966669 .035 .23433335 .039 .255 .047000003 C .27566669 .05566667 .29266668 .06666667 .306 .080000009 C .31933335 .094000007 .329 .10933334 .335 .126 C .34166668 .14266669 .345 .15966667 .345 .17700002 C .345 .199 .34033335 .21733333 .331 .23200001 C .3216667 .24733334 .30933333 .26066665 .294 .27199999 C .27933336 .28333334 .26233337 .293 .24300002 .301 C .22366667 .309 .204 .317 .18400002 .325 C .16133334 .33366666 .13900002 .34266667 .11700001 .352 C .095000009 .36133335 .075333338 .3726667 .058000003 .386 C .04066667 .4 .026666666 .41633336 .015999999 .435 C .005333333 .45433335 0 .47800002 0 .50600007 C 0 .5353334 .005666667 .56066676 .017 .582 C .02833333 .60400006 .043333334 .62200006 .062000004 .63600006 C .08133334 .65000006 .10300001 .6603334 .127 .66700008 C .15166667 .6743334 .17666668 .67800006 .202 .67800006 C .21933334 .67800006 .23566668 .67666676 .251 .674 C .2663333 .6720001 .281 .6693334 .29500003 .66600009 C .30633334 .6633334 .31733335 .6610001 .328 .65900006 C .33866669 .65766677 .349 .65700009 .359 .65700009 L .359 .554 L .349 .554 C .34766666 .58866676 .334 .61200007 .308 .6240001 C .28199999 .6366667 .246 .64300009 .20000002 .64300009 C .17333335 .64300009 .15133335 .6383334 .134 .62900009 C .117333348 .6203334 .10400001 .60933336 .09400001 .596 C .084 .5833333 .077 .5693334 .073 .554 C .06966667 .5393334 .068 .5263334 .068 .51500007 C .068 .49633337 .072000008 .48033334 .08 .467 C .08866668 .4536667 .1 .442 .11400001 .432 C .128 .42200003 .14400001 .413 .16200002 .405 C .18066669 .39699999 .2 .38933335 .22000002 .382 C .24266668 .37333334 .2656667 .364 .289 .354 C .31233336 .344 .333 .33166669 .351 .317 C .36966668 .30233334 .38466669 .28433333 .396 .263 C .408 .24166668 .414 .21566667 .414 .185 Z "/>
</symbol>
<symbol id="font_3_f">
<path d="M 0 .010000001 L .004999999 .010000001 C .010333333 .010000001 .015000001 .011666668 .019000002 .015000001 C .023 .019000002 .026333332 .023666667 .029 .029000001 C .032333334 .034333335 .03466667 .040000004 .036 .046000005 C .038000004 .052000006 .039000006 .05766667 .039000006 .063 L .039000006 .59800007 C .039000006 .6026667 .038000004 .60800006 .036 .614 C .03466667 .62000009 .032333334 .6256667 .029 .63100007 C .026333332 .6363334 .023 .6406667 .019000002 .64400008 C .015000001 .64800009 .010333333 .65000006 .004999999 .65000006 L 0 .65000006 L 0 .66 L .385 .66 L .385 .56700006 L .375 .56700006 C .37366668 .5823334 .3676667 .5956667 .357 .60700008 C .34633336 .619 .3296667 .625 .30700005 .625 L .106000009 .625 L .106000009 .372 L .272 .372 C .28733335 .372 .3 .37666667 .31 .386 C .3206667 .39533333 .32600004 .40633337 .32600004 .41900004 L .33600004 .41900004 L .33600004 .294 L .32600004 .294 C .32600004 .306 .321 .31633333 .311 .32500003 C .301 .33366669 .28800003 .33800004 .272 .33800004 L .106000009 .33800004 L .106000009 .035 L .325 .035 C .33766667 .035 .3486667 .038000004 .35800005 .044000005 C .36733339 .05 .37500004 .057 .38100005 .065000008 C .3876667 .07366667 .39233337 .08266667 .39500005 .09200001 C .3983334 .102000009 .4 .110333349 .40000005 .117000009 L .41000004 .117000009 L .41000004 0 L 0 0 L 0 .010000001 Z "/>
</symbol>
<symbol id="font_3_2f">
<path d="M .136 .010000001 L .141 .010000001 L .141 0 L 0 0 L 0 .010000001 L .004999999 .010000001 C .009666667 .010000001 .014000001 .012000001 .018 .016 C .022000002 .020000002 .025333338 .024666667 .028000005 .030000002 C .031333336 .035333337 .033666668 .041000006 .035000005 .047000003 C .036333335 .05366667 .037 .059666676 .037 .065000008 L .037 .59800007 C .037 .6026667 .036333335 .60800006 .035000005 .614 C .033666668 .62000009 .031333336 .6256667 .028000005 .63100007 C .025333338 .6363334 .022000002 .6406667 .018 .64400008 C .014000001 .64800009 .009666667 .65000006 .004999999 .65000006 L 0 .65000006 L 0 .66 L .17400001 .66 C .24066668 .66 .292 .647 .328 .62100008 C .3646667 .595 .38300003 .5566667 .38300003 .50600007 C .38300003 .48066674 .37866668 .45833335 .37 .439 C .36200003 .42033337 .35100005 .404 .337 .39000003 C .32300005 .37666667 .30633337 .36566667 .287 .35700003 C .26833336 .349 .24833334 .34300003 .22700002 .33900003 L .29900003 .22900002 C .31633333 .20233335 .334 .176 .352 .15 C .37 .12466667 .3876667 .09833334 .40500004 .071 C .4096667 .06433334 .41466666 .057333337 .42000003 .05 C .42600004 .04266667 .432 .036000004 .43800003 .030000002 C .4446667 .024000003 .45133338 .019000002 .458 .015000001 C .4653333 .011666668 .47266666 .010000001 .48000003 .010000001 L .48000003 0 L .43700005 0 C .41033338 0 .38833333 .006333334 .371 .019000002 C .3543333 .032333334 .34033335 .04766667 .329 .065000008 C .29900003 .109000008 .26900003 .15366668 .23900001 .19900002 C .20966667 .24433334 .18033333 .289 .15100001 .333 C .14366667 .33366669 .13566667 .33433334 .127 .335 C .11900001 .33633337 .11133334 .33766667 .104 .33900003 L .104 .065000008 C .104 .059666676 .10466667 .05366667 .106000009 .047000003 C .10733334 .041000006 .10933334 .035333337 .112 .030000002 C .11533334 .024666667 .11866667 .020000002 .12200001 .016 C .126 .012000001 .13066668 .010000001 .136 .010000001 M .104 .62600007 L .104 .372 L .10900001 .372 C .11433333 .37133337 .122666668 .37066666 .134 .37 C .14600002 .37 .16066668 .37 .178 .37 C .19200002 .37 .2066667 .372 .22200002 .37600003 C .23800002 .3806667 .25266669 .388 .26600004 .39800004 C .28 .4086667 .29133336 .42233337 .3 .439 C .30933336 .4556667 .314 .4766667 .314 .50200006 C .314 .5273333 .30900003 .54800006 .29900003 .564 C .28966669 .58 .27633337 .5926667 .259 .60200008 C .24233334 .6113334 .222 .6176667 .19800002 .62100008 C .17400003 .6243334 .14766668 .62600007 .119 .62600007 L .104 .62600007 Z "/>
</symbol>
<symbol id="font_3_3">
<path d="M 0 0 Z "/>
</symbol>
<symbol id="font_3_32">
<path d="M .289 .010000001 L .294 .010000001 L .294 0 L .15200001 0 L .15200001 .010000001 L .157 .010000001 C .16233334 .010000001 .16700001 .012000001 .171 .016 C .175 .020000002 .17833334 .024666667 .18100001 .030000002 C .18433334 .035333337 .18666667 .041000006 .18800001 .047000003 C .18933334 .05366667 .19000001 .059666676 .19000001 .065000008 L .19000001 .623 L .074 .623 C .06333333 .623 .054 .6206667 .046000005 .61600008 C .038000004 .6113334 .031333336 .6053334 .026 .59800007 C .020666667 .5913333 .016666668 .5836667 .014000001 .57500007 C .011333334 .56700006 .010000001 .559 .010000001 .551 L 0 .551 L 0 .66 L .44900004 .66 L .44900004 .551 L .439 .551 C .439 .559 .43766669 .56700006 .43500004 .57500007 C .43233336 .5836667 .42833338 .5913333 .423 .59800007 C .41766668 .6053334 .411 .6113334 .40300004 .61600008 C .395 .6206667 .3856667 .623 .375 .623 L .257 .623 L .257 .065000008 C .257 .059666676 .25766669 .05366667 .259 .047000003 C .26033334 .041000006 .26233337 .035333337 .26500003 .030000002 C .26833336 .024666667 .27166669 .020000002 .275 .016 C .279 .012000001 .2836667 .010000001 .289 .010000001 Z "/>
</symbol>
<symbol id="font_3_23">
<path d="M .41300003 .010000001 L .418 .010000001 C .43400003 .010000001 .44200004 .017333335 .44200004 .032 C .44200004 .037333337 .441 .043 .439 .049000004 L .349 .29200004 L .17400001 .29200004 L .087000008 .053000004 C .08500001 .04766667 .084000017 .04266667 .08400001 .038000004 C .084000017 .029333333 .086333338 .022333334 .091000009 .017 C .09566667 .0123333339 .10066667 .010000001 .106000009 .010000001 L .111 .010000001 L .111 0 L 0 0 L 0 .010000001 L .005000001 .010000001 C .013666667 .010000001 .022000002 .015000001 .030000003 .025 C .03866667 .035666668 .045666677 .048000006 .051000008 .062000004 L .28 .67200008 L .504 .068 C .5086667 .05466667 .51500007 .041666669 .523 .029000001 C .5316667 .016333335 .5426667 .010000001 .55600008 .010000001 L .56100007 .010000001 L .56100007 0 L .41300003 0 L .41300003 .010000001 M .18400002 .326 L .33800004 .326 L .261 .535 L .18400002 .326 Z "/>
</symbol>
<symbol id="font_3_19">
<path d="M 0 .66 L .143 .66 L .143 .65000006 L .13800001 .65000006 C .13333334 .65000006 .12900001 .64800009 .125 .64400008 C .121000017 .6406667 .11766667 .6363334 .115 .63100007 C .112333338 .62633338 .11000001 .6206667 .108 .614 C .10666666 .60800006 .106 .6026667 .106 .59800007 L .106 .065000008 C .106 .059666676 .10666666 .05366667 .108 .047000003 C .10933334 .041000006 .11133334 .035333337 .114 .030000002 C .117333348 .024666667 .120666678 .020000002 .124000009 .016 C .128 .012000001 .13266666 .010000001 .13800001 .010000001 L .143 .010000001 L .143 0 L 0 0 L 0 .010000001 L .004999999 .010000001 C .010333333 .010000001 .015000001 .011666668 .019000002 .015000001 C .023 .019000002 .026333332 .023666667 .029 .029000001 C .032333334 .035 .03466667 .041000006 .036 .047000003 C .037333337 .05366667 .038000004 .059666676 .038000004 .065000008 L .038000004 .59800007 C .038000004 .6026667 .037333337 .60800006 .036 .614 C .03466667 .62000009 .032333334 .6256667 .029 .63100007 C .026333332 .6363334 .023 .6406667 .019000002 .64400008 C .015000001 .64800009 .010333333 .65000006 .004999999 .65000006 L 0 .65000006 L 0 .66 Z "/>
</symbol>
<symbol id="font_3_3c">
<path d="M 0 .66 L .138 .66 L .138 .65000006 C .13333333 .6493334 .129 .6473334 .125 .64400008 C .121000017 .6406667 .11900001 .63566669 .11900001 .629 C .11900001 .6256667 .120000008 .62200006 .122 .61800006 L .272 .35500003 L .41600005 .60400006 C .4186667 .60933336 .42033337 .6133334 .42100004 .61600008 C .42233337 .6186667 .423 .62200006 .42300005 .62600007 C .4216667 .6366667 .4176667 .6433334 .41100005 .646 C .40500007 .6486667 .40133337 .65000006 .40000005 .65000006 L .40000005 .66 L .507 .66 L .507 .65000006 C .49700008 .65000006 .4866667 .6436667 .47600005 .63100007 C .46600006 .619 .45733337 .60666677 .45000003 .59400007 L .29400004 .324 L .29400004 .065000008 C .29400004 .059666676 .29466669 .054 .29600004 .048 C .298 .042 .30033336 .036000004 .30300004 .030000002 C .3056667 .024666667 .30900003 .020000002 .31300003 .016 C .31700004 .012000001 .3216667 .010000001 .32700003 .010000001 L .33200003 .010000001 L .33200003 0 L .189 0 L .189 .010000001 L .194 .010000001 C .19933336 .010000001 .204 .011666668 .208 .015000001 C .21200001 .019000002 .21533335 .023666667 .21800001 .029000001 C .22133334 .035 .22366667 .041000006 .22500001 .047000003 C .22633334 .05366667 .227 .059666676 .227 .065000008 L .227 .31500004 L .06600001 .591 C .06266668 .5963333 .058666674 .60233339 .054000006 .609 C .049333335 .6156667 .04433334 .62200006 .039000006 .628 C .03366667 .634 .028000003 .639 .022 .643 C .016 .6476667 .010333334 .65000006 .0050000005 .65000006 L 0 .65000006 L 0 .66 Z "/>
</symbol>
<use xlink:href="#font_3_b" transform="matrix(15.48,0,0,-15.48,89.8429,204.53754)" fill="#606872"/>
<use xlink:href="#font_3_20" transform="matrix(15.48,0,0,-15.48,102.74644,204.38274)" fill="#606872"/>
<use xlink:href="#font_3_25" transform="matrix(15.48,0,0,-15.48,112.98919,204.53754)" fill="#606872"/>
<use xlink:href="#font_3_30" transform="matrix(15.48,0,0,-15.48,127.91905,204.50658)" fill="#606872"/>
<use xlink:href="#font_3_f" transform="matrix(15.48,0,0,-15.48,138.81166,204.38274)" fill="#606872"/>
<use xlink:href="#font_3_2f" transform="matrix(15.48,0,0,-15.48,149.48763,204.38274)" fill="#606872"/>
<use xlink:href="#font_3_3" transform="matrix(15.48,0,0,-15.48,160.31777,204.38274)" fill="#606872"/>
<use xlink:href="#font_3_32" transform="matrix(15.48,0,0,-15.48,167.65254,204.38274)" fill="#606872"/>
<use xlink:href="#font_3_25" transform="matrix(15.48,0,0,-15.48,178.49898,204.53754)" fill="#606872"/>
<use xlink:href="#font_3_3" transform="matrix(15.48,0,0,-15.48,192.87157,204.38274)" fill="#606872"/>
<use xlink:href="#font_3_2f" transform="matrix(15.48,0,0,-15.48,200.76363,204.38274)" fill="#606872"/>
<use xlink:href="#font_3_f" transform="matrix(15.48,0,0,-15.48,212.29039,204.38274)" fill="#606872"/>
<use xlink:href="#font_3_23" transform="matrix(15.48,0,0,-15.48,222.48648,204.38274)" fill="#606872"/>
<use xlink:href="#font_3_20" transform="matrix(15.48,0,0,-15.48,235.26653,204.38274)" fill="#606872"/>
<use xlink:href="#font_3_19" transform="matrix(15.48,0,0,-15.48,245.69506,204.38274)" fill="#606872"/>
<use xlink:href="#font_3_32" transform="matrix(15.48,0,0,-15.48,252.00832,204.38274)" fill="#606872"/>
<use xlink:href="#font_3_3c" transform="matrix(15.48,0,0,-15.48,262.32844,204.38274)" fill="#606872"/>
<g id="Layer-1" data-name="P">
</g>
<symbol id="font_4_25">
<path d="M 0 0 L 0 .71000006 L .273 .71000006 C .33166669 .71000006 .38333337 .7006667 .42800004 .68200007 C .47266675 .66333338 .51000007 .638 .54 .606 C .57 .57400009 .5926667 .5363334 .60800006 .49300004 C .6233334 .45033337 .63100007 .40466667 .63100007 .356 C .63100007 .30200003 .62233337 .253 .605 .209 C .58833339 .16566669 .5643334 .12833335 .53300008 .097 C .5016667 .06633333 .46400009 .042333336 .42000003 .025 C .37600003 .008333334 .32700003 0 .273 0 L 0 0 M .43300004 .356 C .433 .38333337 .42933337 .40833334 .422 .43100003 C .41466666 .4536667 .40400005 .47300006 .39000006 .48900003 C .3766667 .50500008 .36 .5173333 .34000004 .526 C .32000003 .53533336 .29766668 .54 .273 .54 L .19500001 .54 L .19500001 .17 L .273 .17 C .29833333 .17 .321 .17466669 .34100003 .18400002 C .36099998 .19333335 .37766669 .20633334 .39100004 .223 C .405 .23966669 .41533337 .25933335 .422 .282 C .42933337 .30466668 .433 .32933335 .43300004 .356 Z "/>
</symbol>
<symbol id="font_4_6a">
<path d="M .33900003 0 C .28833334 0 .242 .010333333 .2 .031 C .15866667 .051666667 .123 .078666668 .093 .112 C .06366667 .14600002 .04066667 .18466668 .024 .22800002 C .008 .27133335 0 .316 0 .36200003 C 0 .4086667 .008333333 .4536667 .024999999 .49700005 C .042333336 .54033336 .06633333 .5783334 .097 .611 C .12766667 .64433339 .16366668 .6706667 .20500002 .69 C .24700003 .71000006 .293 .72 .34300003 .72 C .3936667 .72 .43966667 .7096667 .481 .689 C .523 .66833338 .5586667 .641 .588 .607 C .61800006 .573 .64100006 .53433337 .657 .49100004 C .67300006 .44766668 .68100008 .40333335 .68100008 .35800005 C .68100008 .31133337 .6723334 .26633335 .65500006 .223 C .6383334 .18033333 .61500009 .14233335 .58500006 .109000008 C .555 .07633334 .519 .05 .477 .030000002 C .43500004 .010000001 .38900004 0 .33900003 0 M .19800002 .36 C .19800002 .33600006 .20066668 .31266669 .20600002 .29000003 C .21200001 .26800005 .221 .24833335 .23300001 .231 C .245 .21366668 .26000003 .19966668 .27800004 .18900001 C .296 .17833334 .317 .17300003 .34100003 .17300001 C .36566673 .17300003 .387 .17833334 .40500004 .18900001 C .423 .20033334 .43766669 .21466667 .44900004 .23200001 C .46033336 .25000004 .46866668 .27033339 .474 .293 C .48000003 .31566669 .48300005 .33866669 .48300005 .36200003 C .48300005 .38600005 .48000003 .40900005 .474 .43100003 C .46800003 .4536667 .45900003 .47333337 .44700004 .49000005 C .43566669 .50733336 .421 .521 .40300004 .531 C .38500003 .5416667 .364 .547 .34 .547 C .31533335 .547 .294 .5416667 .27600003 .531 C .25866667 .52033337 .244 .506 .23200003 .48800005 C .22066669 .47066675 .21200001 .4506667 .20600002 .42800004 C .20066668 .40600006 .19800002 .38333337 .19800002 .36 Z "/>
</symbol>
<symbol id="font_4_62">
<path d="M .19500001 .349 L .19500001 0 L 0 0 L 0 .71000006 L .15200001 .71000006 L .43700005 .349 L .43700005 .71000006 L .632 .71000006 L .632 0 L .47700007 0 L .19500001 .349 Z "/>
</symbol>
<symbol id="font_4_29">
<path d="M .50600007 .17 L .50600007 0 L 0 0 L 0 .71000006 L .49700005 .71000006 L .49700005 .54 L .19500001 .54 L .19500001 .44000004 L .453 .44000004 L .453 .282 L .19500001 .282 L .19500001 .17 L .50600007 .17 Z "/>
</symbol>
<symbol id="font_4_7e">
<path d="M 0 0 L 0 .71000006 L .32600004 .71000006 C .36066667 .71000006 .39266668 .7026667 .422 .688 C .45133338 .674 .47633339 .65533336 .49700005 .632 C .5183334 .60933336 .535 .583 .54700008 .55300006 C .5590001 .5236667 .56500008 .494 .56500008 .46400003 C .56500008 .42266668 .55600008 .38400004 .53800007 .34800003 C .52000007 .31266669 .49500004 .2836667 .46300007 .261 L .623 0 L .403 0 L .268 .21800001 L .19500001 .21800001 L .19500001 0 L 0 0 M .19500001 .388 L .31800003 .388 C .33 .388 .341 .39466668 .351 .40800003 C .36166669 .42133335 .367 .44000004 .36700005 .46400003 C .367 .48866669 .36100007 .50733336 .34900005 .52000007 C .33700005 .53333339 .32500003 .54 .31300003 .54 L .19500001 .54 L .19500001 .388 Z "/>
</symbol>
<symbol id="font_4_83">
<path d="M .47800002 .48700003 C .45800004 .49899999 .43733336 .5096667 .416 .51900008 C .398 .527 .37766669 .53433337 .35500003 .541 C .333 .54833337 .31133334 .55200007 .29 .55200007 C .27266667 .55200007 .25866667 .5493334 .24800001 .544 C .23800002 .53866669 .233 .52966669 .23300001 .517 C .233 .50766667 .23600002 .5 .24200003 .49400003 C .24800001 .488 .25666667 .48233334 .268 .47700004 C .27933333 .47233335 .293 .46766673 .30900003 .46300004 C .32566668 .45833338 .34433333 .45266668 .365 .446 C .3976667 .43600003 .42700003 .42500005 .453 .41300003 C .4796667 .40100003 .50233337 .3866667 .521 .37000004 C .5396667 .354 .554 .33433334 .564 .31100003 C .574 .28766669 .579 .25933335 .579 .22600001 C .579 .18333335 .57100006 .14733334 .555 .11800001 C .53966668 .08933333 .519 .06633333 .49300004 .049000004 C .46766673 .03166667 .43866668 .019000002 .40600003 .011000001 C .37399999 .003666667 .3416667 0 .30900003 0 C .28300003 0 .25633336 .002 .22900002 .0060000007 C .20166667 .010000001 .17433334 .015666668 .14700002 .023000002 C .120333347 .030333335 .09433334 .039 .069000009 .049000004 C .04433334 .059000005 .021333335 .07033334 0 .083000008 L .08400001 .254 C .10733334 .23933335 .13166668 .22633334 .157 .21500002 C .17833334 .20500003 .20233335 .19600003 .22900002 .18800001 C .25633336 .18 .284 .17600002 .312 .17600002 C .33333335 .17600002 .34800003 .17866667 .356 .18400002 C .3646667 .19000001 .36900006 .19766669 .36900003 .20700002 C .36900006 .21700001 .3646667 .22533335 .356 .23200001 C .34800003 .23933335 .33666668 .24566669 .322 .25100003 C .30733336 .25633336 .29033337 .2616667 .271 .26700003 C .25233335 .27233336 .23233335 .27866668 .21100001 .286 C .17966669 .29666669 .15266668 .308 .13000001 .32000003 C .10733334 .33266668 .08866667 .3466667 .074 .36200003 C .059333337 .37800003 .048333337 .396 .041 .416 C .034333338 .43600003 .031000004 .45900003 .031000004 .485 C .031000004 .52433338 .038000004 .559 .052000006 .58900007 C .06666667 .619 .086333338 .644 .111 .66400006 C .13566669 .684 .16366668 .69900009 .19500001 .70900008 C .22700002 .7196667 .2606667 .7250001 .296 .725 C .322 .7250001 .34733335 .7223334 .372 .717 C .39666669 .7123334 .42033337 .70600005 .44300003 .698 C .46633337 .6906667 .488 .6823334 .508 .67300006 C .528 .66433337 .546 .6560001 .56200006 .64800009 L .47800002 .48700003 Z "/>
</symbol>
<symbol id="font_4_88">
<path d="M .60400006 .54 L .40000005 .54 L .40000005 0 L .205 0 L .205 .54 L 0 .54 L 0 .71000006 L .60400006 .71000006 L .60400006 .54 Z "/>
</symbol>
<symbol id="font_4_1">
<path d="M 0 0 L .265 .71000006 L .423 .71000006 L .68700006 0 L .481 0 L .438 .13900002 L .24900002 .13900002 L .20700002 0 L 0 0 M .344 .507 L .278 .26900003 L .407 .26900003 L .344 .507 Z "/>
</symbol>
<symbol id="font_4_3a">
<path d="M .48000003 .063 C .43533335 .021 .38366667 0 .32500003 0 C .28100003 0 .23933333 .009666667 .2 .029000001 C .16066666 .049 .126 .075666669 .096 .109000008 C .06666667 .14233335 .043333334 .18100001 .026 .22500001 C .008666667 .26966668 0 .3166667 0 .36600004 C 0 .416 .008666667 .46233336 .026 .505 C .044 .54833337 .068333338 .58566668 .09900001 .61700007 C .13033335 .649 .16700001 .674 .209 .69200006 C .25100003 .71066668 .296 .72 .344 .72 C .37400005 .72 .4026667 .7163334 .43 .70900008 C .45733334 .7023334 .4826667 .692 .50600007 .67800006 C .52933338 .6646667 .55 .6483334 .568 .629 C .58666667 .6103334 .602 .589 .614 .565 L .469 .45400004 C .45700003 .48200003 .4386667 .5043333 .414 .521 C .39000003 .53833338 .36433337 .54700008 .337 .54700008 C .317 .54700008 .29833336 .54233339 .28100003 .533 C .26433335 .5236667 .24966669 .51066669 .23700002 .49400003 C .22500003 .47733335 .21533335 .45733334 .208 .43400003 C .20133335 .41133333 .19800002 .38633336 .19800002 .359 C .19800002 .331 .20133335 .3056667 .208 .28300003 C .21533335 .26033334 .22533334 .24066668 .238 .224 C .25066666 .208 .2656667 .19533335 .28300003 .186 C .301 .17733334 .32066668 .17300003 .342 .17300001 C .36600004 .17300003 .38900004 .179 .411 .191 C .4336667 .20300001 .4546667 .22033334 .474 .243 L .349 .243 L .349 .38300003 L .64100006 .38300003 L .64100006 .0050000005 L .48000003 .0050000005 L .48000003 .063 Z "/>
</symbol>
<use xlink:href="#font_4_25" transform="matrix(55.199998,0,0,-55.199998,1.9272587,186.65332)" fill="#ffcf48"/>
<use xlink:href="#font_4_6a" transform="matrix(55.199998,0,0,-55.199998,39.404748,186.98453)" fill="#ffcf48"/>
<use xlink:href="#font_4_62" transform="matrix(55.199998,0,0,-55.199998,81.62941,186.65332)" fill="#ffcf48"/>
<use xlink:href="#font_4_62" transform="matrix(55.199998,0,0,-55.199998,123.24672,186.65332)" fill="#ffcf48"/>
<use xlink:href="#font_4_29" transform="matrix(55.199998,0,0,-55.199998,164.86403,186.65332)" fill="#ffcf48"/>
<use xlink:href="#font_4_7e" transform="matrix(55.199998,0,0,-55.199998,197.81566,186.65332)" fill="#ffcf48"/>
<use xlink:href="#font_4_83" transform="matrix(55.199998,0,0,-55.199998,233.0301,187.15012)" fill="#ffcf48"/>
<use xlink:href="#font_4_88" transform="matrix(55.199998,0,0,-55.199998,266.92005,186.65332)" fill="#ffcf48"/>
<use xlink:href="#font_4_1" transform="matrix(55.199998,0,0,-55.199998,300.36839,186.65332)" fill="#ffcf48"/>
<use xlink:href="#font_4_3a" transform="matrix(55.199998,0,0,-55.199998,339.11567,186.92932)" fill="#ffcf48"/>
</g>
</g>
</svg>
