<?xml version="1.0" encoding="UTF-8" standalone="no"?>
<!DOCTYPE svg PUBLIC "-//W3C//DTD SVG 1.1//EN" "http://www.w3.org/Graphics/SVG/1.1/DTD/svg11.dtd">
<svg xmlns="http://www.w3.org/2000/svg" xmlns:xlink="http://www.w3.org/1999/xlink"
     version="1.1" width="375pt" height="110pt" viewBox="0 145 375 75">
<g enable-background="new">
<clipPath id="cp0">
<path transform="matrix(.24,0,0,.24,0,0)" d="M 0 .00048828127 L 1562.5 .00048828127 L 1562.5 1593.7505 L 0 1593.7505 Z " fill-rule="evenodd"/>
</clipPath>
<g clip-path="url(#cp0)">
<path transform="matrix(.75,0,0,.75,0,-1912.4999)" d="M 0 2550 L 500 2550 L 500 3050 L 0 3050 Z " fill="#ffffff"/>
</g>
<clipPath id="cp1">
<path transform="matrix(.24,0,0,.24,0,0)" d="M 0 .00048828127 L 1562.5 .00048828127 L 1562.5 1562.5005 L 0 1562.5005 Z " fill-rule="evenodd"/>
</clipPath>
<g clip-path="url(#cp1)">
<path transform="matrix(.75,0,0,.75,0,.0001171875)" d="M 0 0 L 500 0 L 500 500 L 0 500 Z " fill="#ffffff"/>
</g>
<clipPath id="cp2">
<path transform="matrix(.24,0,0,.24,0,0)" d="M 0 .00048828127 L 1562.5 .00048828127 L 1562.5 1562.5005 L 0 1562.5005 Z " fill-rule="evenodd"/>
</clipPath>
<g clip-path="url(#cp2)">
<g id="Layer-1" data-name="P">
</g>
<symbol id="font_3_b">
<path d="M .358 .644 C .30866669 .644 .2656667 .635 .229 .61700007 C .193 .59966668 .163 .57666668 .139 .54800006 C .115 .52000007 .097 .48833338 .08500001 .453 C .07366667 .41766668 .068 .38266669 .068 .34800003 C .068 .30866669 .07566667 .27 .091000009 .23200003 C .10633334 .19466669 .12733335 .16133334 .154 .13200002 C .18133335 .10333333 .21300002 .080000009 .24900002 .062000004 C .285 .044666668 .324 .036000004 .36600004 .036000004 C .37800003 .036000004 .392 .037333337 .40800003 .040000004 C .42466668 .04266667 .441 .04766667 .45700003 .055000005 C .47300006 .063 .4876667 .074 .50100007 .088 C .51500007 .102 .5256667 .12033334 .53300008 .143 L .54300007 .143 L .54300007 .032 C .53300008 .032 .5223334 .03066667 .51100006 .028 C .50033339 .025333336 .48833335 .022333334 .475 .019000002 C .45766668 .014333335 .43833337 .010000001 .41700004 .0060000007 C .39633335 .002 .37433336 0 .351 0 C .293 0 .242 .010000001 .19800002 .030000002 C .154 .05 .11733333 .076000008 .088 .108 C .058666666 .14000002 .036666674 .17600002 .022000004 .21600002 C .0073333347 .2566667 0 .29766668 0 .33900003 C 0 .38033334 .0073333347 .42133335 .022000004 .462 C .036666674 .50266668 .059000005 .53900006 .089 .57100006 C .118999999 .6036667 .15666668 .63000008 .202 .65000006 C .24733335 .67 .3006667 .68 .36200003 .68 C .38400004 .68 .40366666 .678 .421 .674 C .439 .6700001 .455 .66600009 .469 .662 C .479 .6586667 .488 .656 .49600003 .65400007 C .50466677 .6526667 .5130001 .652 .521 .652 L .521 .541 L .51100006 .541 C .507 .56166669 .4996667 .5786667 .489 .592 C .47833336 .606 .46566669 .61666676 .451 .624 C .437 .63133338 .4216667 .6363333 .40500004 .639 C .38900004 .6423333 .37333334 .644 .358 .644 Z "/>
</symbol>
<symbol id="font_3_20">
<path d="M 0 .010000001 L .004999999 .010000001 C .010333333 .010000001 .015000001 .011666668 .019000002 .015000001 C .023 .019000002 .026333332 .023666667 .029 .029000001 C .032333334 .034333335 .03466667 .040000004 .036 .046000005 C .038000004 .052000006 .039000006 .05766667 .039000006 .063 L .039000006 .59800007 C .039000006 .6026667 .038000004 .60800006 .036 .614 C .03466667 .62000009 .032333334 .6256667 .029 .63100007 C .026333332 .6363334 .023 .6406667 .019000002 .64400008 C .015000001 .64800009 .010333333 .65000006 .004999999 .65000006 L 0 .65000006 L 0 .66 L .14400001 .66 L .14400001 .65000006 L .13900002 .65000006 C .13366668 .65000006 .12900001 .64800009 .125 .64400008 C .121 .6406667 .11766667 .6363334 .11500001 .63100007 C .112333338 .6256667 .11000001 .62000009 .10800001 .614 C .10666668 .60800006 .106000009 .6026667 .106000009 .59800007 L .106000009 .037 L .325 .037 C .33766667 .037 .3486667 .040000004 .35800005 .046000005 C .36733339 .052000006 .37500004 .059333337 .38100005 .068 C .3876667 .07733334 .39233337 .087000008 .39500005 .097 C .3983334 .10766667 .4 .11733333 .40000005 .126 L .41000004 .126 L .41000004 0 L 0 0 L 0 .010000001 Z "/>
</symbol>
<symbol id="font_3_25">
<path d="M .34500004 .68 C .39699999 .68 .4436667 .6706667 .485 .652 C .5263334 .634 .56133338 .60933336 .59000006 .578 C .6193333 .5473333 .64166668 .51133337 .657 .47 C .67300006 .42933334 .68100008 .3866667 .68100008 .342 C .68100008 .292 .6716667 .24599999 .65300008 .20400001 C .63500007 .16200002 .6100001 .126 .578 .096 C .546 .06600001 .5086667 .042333336 .46600003 .025000003 C .42400003 .008333334 .37900005 0 .33100004 0 C .2796667 0 .23333335 .009333334 .19200002 .028 C .15133335 .04666667 .116666678 .07133334 .088 .102000009 C .060000004 .13266668 .038333339 .16800003 .023000002 .20800002 C .0076666676 .24800001 0 .28966669 0 .333 C 0 .3756667 .0076666676 .41766668 .023000002 .45900003 C .038333339 .501 .06066667 .53833338 .09 .57100006 C .120000008 .6036667 .15633334 .63000008 .19900002 .65000006 C .24166668 .67 .29033337 .68 .34500004 .68 M .344 .035 C .38866667 .037 .42766667 .047000003 .46100004 .065000008 C .49500004 .083666678 .5233334 .107 .546 .135 C .5686667 .16366668 .58533337 .19500001 .596 .22900002 C .60733339 .263 .61300006 .29666666 .61300006 .33 C .61300006 .36666668 .6063334 .4036667 .59300008 .441 C .5796667 .47833336 .5606667 .512 .536 .542 C .51133337 .57266667 .48166669 .5973334 .44700004 .616 C .41300003 .63533338 .3746667 .64500007 .33200003 .64500007 C .29066668 .64500007 .25366668 .63566669 .22100002 .61700007 C .18833335 .59900006 .16033334 .57566669 .13700001 .547 C .11433333 .5183334 .097 .48633335 .08500001 .451 C .07300001 .41566668 .067 .381 .067 .347 C .067 .31033335 .074 .27333335 .088 .23600002 C .102000009 .19933336 .12133334 .16600001 .14600002 .136 C .17066668 .106000009 .19966668 .08166667 .23300001 .063 C .267 .044333336 .30400003 .035 .344 .035 Z "/>
</symbol>
<symbol id="font_3_30">
<path d="M .414 .185 C .414 .15166667 .40733335 .123 .394 .09900001 C .38066665 .07566667 .36333335 .056666674 .342 .042000005 C .32133333 .027333335 .29766668 .016666668 .271 .010000001 C .245 .0033333337 .21900003 0 .19300002 0 C .16633335 0 .14333335 .0026666669 .12400001 .008 C .10466668 .013333335 .08700001 .018333335 .07100001 .023000002 C .06033334 .026333334 .05066667 .029000001 .042 .031000004 C .033333336 .033666668 .024666667 .035 .015999999 .035 L .015999999 .149 L .026 .149 C .026 .123666677 .032333334 .10333335 .044999999 .08800001 C .058333335 .07333333 .07366667 .062000004 .091000009 .054000006 C .10833335 .046000005 .12566668 .04066667 .143 .038000004 C .16033335 .036000004 .17300003 .035 .18100001 .035 C .20966669 .035 .23433335 .039 .255 .047000003 C .27566669 .05566667 .29266668 .06666667 .306 .080000009 C .31933335 .094000007 .329 .10933334 .335 .126 C .34166668 .14266669 .345 .15966667 .345 .17700002 C .345 .199 .34033335 .21733333 .331 .23200001 C .3216667 .24733334 .30933333 .26066665 .294 .27199999 C .27933336 .28333334 .26233337 .293 .24300002 .301 C .22366667 .309 .204 .317 .18400002 .325 C .16133334 .33366666 .13900002 .34266667 .11700001 .352 C .095000009 .36133335 .075333338 .3726667 .058000003 .386 C .04066667 .4 .026666666 .41633336 .015999999 .435 C .005333333 .45433335 0 .47800002 0 .50600007 C 0 .5353334 .005666667 .56066676 .017 .582 C .02833333 .60400006 .043333334 .62200006 .062000004 .63600006 C .08133334 .65000006 .10300001 .6603334 .127 .66700008 C .15166667 .6743334 .17666668 .67800006 .202 .67800006 C .21933334 .67800006 .23566668 .67666676 .251 .674 C .2663333 .6720001 .281 .6693334 .29500003 .66600009 C .30633334 .6633334 .31733335 .6610001 .328 .65900006 C .33866669 .65766677 .349 .65700009 .359 .65700009 L .359 .554 L .349 .554 C .34766666 .58866676 .334 .61200007 .308 .6240001 C .28199999 .6366667 .246 .64300009 .20000002 .64300009 C .17333335 .64300009 .15133335 .6383334 .134 .62900009 C .117333348 .6203334 .10400001 .60933336 .09400001 .596 C .084 .5833333 .077 .5693334 .073 .554 C .06966667 .5393334 .068 .5263334 .068 .51500007 C .068 .49633337 .072000008 .48033334 .08 .467 C .08866668 .4536667 .1 .442 .11400001 .432 C .128 .42200003 .14400001 .413 .16200002 .405 C .18066669 .39699999 .2 .38933335 .22000002 .382 C .24266668 .37333334 .2656667 .364 .289 .354 C .31233336 .344 .333 .33166669 .351 .317 C .36966668 .30233334 .38466669 .28433333 .396 .263 C .408 .24166668 .414 .21566667 .414 .185 Z "/>
</symbol>
<symbol id="font_3_f">
<path d="M 0 .010000001 L .004999999 .010000001 C .010333333 .010000001 .015000001 .011666668 .019000002 .015000001 C .023 .019000002 .026333332 .023666667 .029 .029000001 C .032333334 .034333335 .03466667 .040000004 .036 .046000005 C .038000004 .052000006 .039000006 .05766667 .039000006 .063 L .039000006 .59800007 C .039000006 .6026667 .038000004 .60800006 .036 .614 C .03466667 .62000009 .032333334 .6256667 .029 .63100007 C .026333332 .6363334 .023 .6406667 .019000002 .64400008 C .015000001 .64800009 .010333333 .65000006 .004999999 .65000006 L 0 .65000006 L 0 .66 L .385 .66 L .385 .56700006 L .375 .56700006 C .37366668 .5823334 .3676667 .5956667 .357 .60700008 C .34633336 .619 .3296667 .625 .30700005 .625 L .106000009 .625 L .106000009 .372 L .272 .372 C .28733335 .372 .3 .37666667 .31 .386 C .3206667 .39533333 .32600004 .40633337 .32600004 .41900004 L .33600004 .41900004 L .33600004 .294 L .32600004 .294 C .32600004 .306 .321 .31633333 .311 .32500003 C .301 .33366669 .28800003 .33800004 .272 .33800004 L .106000009 .33800004 L .106000009 .035 L .325 .035 C .33766667 .035 .3486667 .038000004 .35800005 .044000005 C .36733339 .05 .37500004 .057 .38100005 .065000008 C .3876667 .07366667 .39233337 .08266667 .39500005 .09200001 C .3983334 .102000009 .4 .110333349 .40000005 .117000009 L .41000004 .117000009 L .41000004 0 L 0 0 L 0 .010000001 Z "/>
</symbol>
<symbol id="font_3_3">
<path d="M 0 0 Z "/>
</symbol>
<symbol id="font_3_32">
<path d="M .289 .010000001 L .294 .010000001 L .294 0 L .15200001 0 L .15200001 .010000001 L .157 .010000001 C .16233334 .010000001 .16700001 .012000001 .171 .016 C .175 .020000002 .17833334 .024666667 .18100001 .030000002 C .18433334 .035333337 .18666667 .041000006 .18800001 .047000003 C .18933334 .05366667 .19000001 .059666676 .19000001 .065000008 L .19000001 .623 L .074 .623 C .06333333 .623 .054 .6206667 .046000005 .61600008 C .038000004 .6113334 .031333336 .6053334 .026 .59800007 C .020666667 .5913333 .016666668 .5836667 .014000001 .57500007 C .011333334 .56700006 .010000001 .559 .010000001 .551 L 0 .551 L 0 .66 L .44900004 .66 L .44900004 .551 L .439 .551 C .439 .559 .43766669 .56700006 .43500004 .57500007 C .43233336 .5836667 .42833338 .5913333 .423 .59800007 C .41766668 .6053334 .411 .6113334 .40300004 .61600008 C .395 .6206667 .3856667 .623 .375 .623 L .257 .623 L .257 .065000008 C .257 .059666676 .25766669 .05366667 .259 .047000003 C .26033334 .041000006 .26233337 .035333337 .26500003 .030000002 C .26833336 .024666667 .27166669 .020000002 .275 .016 C .279 .012000001 .2836667 .010000001 .289 .010000001 Z "/>
</symbol>
<symbol id="font_3_17">
<path d="M .43800003 .358 L .58100005 .358 L .58100005 .34800003 L .57600006 .34800003 C .57066676 .34800003 .56600007 .34600006 .56200006 .342 C .558 .33866669 .5546667 .33433334 .55200007 .329 C .5493334 .32366667 .547 .318 .545 .312 C .54366669 .306 .54300007 .30066667 .54300007 .296 L .54300007 .028 C .5310001 .023333336 .5173333 .019333335 .50200006 .016 C .48666669 .012666668 .47066669 .010000001 .45400004 .008 C .43733336 .005333334 .42033337 .0033333339 .40300004 .0020000004 C .3856667 .0006666668 .3696667 0 .35500003 0 C .29500003 0 .24266668 .010000001 .19800002 .030000002 C .15333335 .05 .11633334 .076000008 .087000008 .108 C .05766667 .14066668 .03566667 .17733334 .021000002 .21800001 C .0070000009 .25866667 0 .29966668 0 .34100003 C 0 .38233338 .0070000009 .42333333 .021000002 .46400003 C .03566667 .5046667 .05766667 .54100009 .087000008 .573 C .11700001 .605 .15433336 .6306667 .19900002 .65000006 C .24433334 .67 .298 .68 .36 .68 C .38333337 .68 .405 .678 .425 .674 C .44500003 .6700001 .46266667 .6663334 .47800005 .66300007 C .48666669 .661 .494 .659 .5 .657 C .5066667 .65566667 .5123334 .65500006 .517 .65500006 L .526 .65500006 L .526 .549 L .51600006 .549 C .512 .5696667 .504 .58633336 .49200005 .59900006 C .48066674 .6116667 .46733336 .62133339 .45200003 .628 C .4366667 .6346667 .42033337 .639 .40300004 .64100006 C .38633336 .6436667 .37066666 .64500007 .356 .64500007 C .30600003 .64500007 .26266668 .63600006 .22600001 .61800006 C .18933334 .6006667 .15933334 .578 .136 .55 C .112666677 .522 .09533334 .49033336 .08400001 .455 C .07266667 .42033337 .067 .3856667 .067 .351 C .067 .31233336 .07433333 .27400003 .089 .23600002 C .10366666 .19866668 .124333348 .165 .15100001 .135 C .17766668 .10566667 .20966669 .08166667 .24700001 .063 C .285 .045 .32700003 .036000004 .37300004 .036000004 C .3856667 .036000004 .40133334 .037333337 .42000003 .040000004 C .43866668 .043333338 .45733334 .050333337 .476 .061000006 L .476 .296 C .47599999 .30066667 .47533337 .306 .47400005 .312 C .47266666 .318 .47033335 .32366667 .467 .329 C .46433334 .33433334 .461 .33866669 .45700003 .342 C .45300005 .34600006 .44833336 .34800003 .44300003 .34800003 L .43800003 .34800003 L .43800003 .358 Z "/>
</symbol>
<symbol id="font_3_e">
<path d="M 0 .010000001 L .004999999 .010000001 C .009666665 .010000001 .013999999 .012000001 .018 .016 C .022 .020000002 .025333336 .024666667 .028 .030000002 C .03133334 .035333337 .03366667 .041000006 .035 .047000003 C .036333335 .05366667 .036999998 .059666676 .036999998 .065000008 L .036999998 .59800007 C .036999998 .6026667 .036333335 .60800006 .035 .614 C .03366667 .62000009 .03166667 .6256667 .029000003 .63100007 C .026333338 .6363334 .023000002 .6406667 .018999998 .64400008 C .015 .64800009 .010333333 .65000006 .004999999 .65000006 L 0 .65000006 L 0 .66 L .19300002 .66 C .24566669 .66 .293 .6506667 .335 .632 C .377 .614 .41233338 .58933338 .441 .558 C .47033338 .5273333 .49266673 .492 .508 .45200003 C .5233334 .41200004 .531 .37033335 .531 .32700003 C .531 .28633336 .5236667 .24633335 .509 .20700002 C .49433337 .16833334 .47233335 .13366668 .44300003 .10300001 C .4136667 .072333339 .377 .047333335 .333 .028 C .289 .009333334 .23800002 0 .18 0 L 0 0 L 0 .010000001 M .46300004 .312 C .46300004 .35466669 .45533336 .395 .44000004 .43300004 C .42466668 .47100006 .40300004 .504 .37500004 .532 C .3476667 .56066676 .31500004 .5833334 .277 .6 C .23966669 .6166667 .19900002 .625 .15500002 .625 L .104 .625 L .104 .035 L .157 .035 C .19300002 .035 .22900002 .040333336 .26500003 .051000004 C .3016667 .062333336 .3346667 .079333338 .36400003 .102000009 C .39333336 .12533334 .41700004 .15433334 .43500004 .18900001 C .4536667 .22366667 .46300004 .26466669 .46300004 .312 Z "/>
</symbol>
<use xlink:href="#font_3_b" transform="matrix(18.480828,0,0,-18.480828,98.69174,217.25428)" fill="#606872"/>
<use xlink:href="#font_3_20" transform="matrix(18.480828,0,0,-18.480828,114.104679,217.06946)" fill="#606872"/>
<use xlink:href="#font_3_25" transform="matrix(18.480828,0,0,-18.480828,126.33894,217.25428)" fill="#606872"/>
<use xlink:href="#font_3_30" transform="matrix(18.480828,0,0,-18.480828,144.17287,217.2173)" fill="#606872"/>
<use xlink:href="#font_3_f" transform="matrix(18.480828,0,0,-18.480828,157.18332,217.06946)" fill="#606872"/>
<use xlink:href="#font_3_3" transform="matrix(18.480828,0,0,-18.480828,169.1034,217.06946)" fill="#606872"/>
<use xlink:href="#font_3_32" transform="matrix(18.480828,0,0,-18.480828,177.86325,217.06946)" fill="#606872"/>
<use xlink:href="#font_3_25" transform="matrix(18.480828,0,0,-18.480828,190.81829,217.25428)" fill="#606872"/>
<use xlink:href="#font_3_3" transform="matrix(18.480828,0,0,-18.480828,207.98691,217.06946)" fill="#606872"/>
<use xlink:href="#font_3_17" transform="matrix(18.480828,0,0,-18.480828,217.26427,217.25428)" fill="#606872"/>
<use xlink:href="#font_3_25" transform="matrix(18.480828,0,0,-18.480828,233.19469,217.25428)" fill="#606872"/>
<use xlink:href="#font_3_e" transform="matrix(18.480828,0,0,-18.480828,251.17647,217.06946)" fill="#606872"/>
<g id="Layer-1" data-name="P">
</g>
<symbol id="font_4_83">
<path d="M .47800002 .48700003 C .45800004 .49899999 .43733336 .5096667 .416 .51900008 C .398 .527 .37766669 .53433337 .35500003 .541 C .333 .54833337 .31133334 .55200007 .29 .55200007 C .27266667 .55200007 .25866667 .5493334 .24800001 .544 C .23800002 .53866669 .233 .52966669 .23300001 .517 C .233 .50766667 .23600002 .5 .24200003 .49400003 C .24800001 .488 .25666667 .48233334 .268 .47700004 C .27933333 .47233335 .293 .46766673 .30900003 .46300004 C .32566668 .45833338 .34433333 .45266668 .365 .446 C .3976667 .43600003 .42700003 .42500005 .453 .41300003 C .4796667 .40100003 .50233337 .3866667 .521 .37000004 C .5396667 .354 .554 .33433334 .564 .31100003 C .574 .28766669 .579 .25933335 .579 .22600001 C .579 .18333335 .57100006 .14733334 .555 .11800001 C .53966668 .08933333 .519 .06633333 .49300004 .049000004 C .46766673 .03166667 .43866668 .019000002 .40600003 .011000001 C .37399999 .003666667 .3416667 0 .30900003 0 C .28300003 0 .25633336 .002 .22900002 .0060000007 C .20166667 .010000001 .17433334 .015666668 .14700002 .023000002 C .120333347 .030333335 .09433334 .039 .069000009 .049000004 C .04433334 .059000005 .021333335 .07033334 0 .083000008 L .08400001 .254 C .10733334 .23933335 .13166668 .22633334 .157 .21500002 C .17833334 .20500003 .20233335 .19600003 .22900002 .18800001 C .25633336 .18 .284 .17600002 .312 .17600002 C .33333335 .17600002 .34800003 .17866667 .356 .18400002 C .3646667 .19000001 .36900006 .19766669 .36900003 .20700002 C .36900006 .21700001 .3646667 .22533335 .356 .23200001 C .34800003 .23933335 .33666668 .24566669 .322 .25100003 C .30733336 .25633336 .29033337 .2616667 .271 .26700003 C .25233335 .27233336 .23233335 .27866668 .21100001 .286 C .17966669 .29666669 .15266668 .308 .13000001 .32000003 C .10733334 .33266668 .08866667 .3466667 .074 .36200003 C .059333337 .37800003 .048333337 .396 .041 .416 C .034333338 .43600003 .031000004 .45900003 .031000004 .485 C .031000004 .52433338 .038000004 .559 .052000006 .58900007 C .06666667 .619 .086333338 .644 .111 .66400006 C .13566669 .684 .16366668 .69900009 .19500001 .70900008 C .22700002 .7196667 .2606667 .7250001 .296 .725 C .322 .7250001 .34733335 .7223334 .372 .717 C .39666669 .7123334 .42033337 .70600005 .44300003 .698 C .46633337 .6906667 .488 .6823334 .508 .67300006 C .528 .66433337 .546 .6560001 .56200006 .64800009 L .47800002 .48700003 Z "/>
</symbol>
<symbol id="font_4_1">
<path d="M 0 0 L .265 .71000006 L .423 .71000006 L .68700006 0 L .481 0 L .438 .13900002 L .24900002 .13900002 L .20700002 0 L 0 0 M .344 .507 L .278 .26900003 L .407 .26900003 L .344 .507 Z "/>
</symbol>
<symbol id="font_4_60">
<path d="M .53700008 0 L .53700008 .374 L .41800005 .11100001 L .314 .11100001 L .19500001 .374 L .19500001 0 L 0 0 L 0 .71000006 L .21300002 .71000006 L .366 .37600003 L .52000007 .71000006 L .73200008 .71000006 L .73200008 0 L .53700008 0 Z "/>
</symbol>
<symbol id="font_4_88">
<path d="M .60400006 .54 L .40000005 .54 L .40000005 0 L .205 0 L .205 .54 L 0 .54 L 0 .71000006 L .60400006 .71000006 L .60400006 .54 Z "/>
</symbol>
<symbol id="font_4_3a">
<path d="M .48000003 .063 C .43533335 .021 .38366667 0 .32500003 0 C .28100003 0 .23933333 .009666667 .2 .029000001 C .16066666 .049 .126 .075666669 .096 .109000008 C .06666667 .14233335 .043333334 .18100001 .026 .22500001 C .008666667 .26966668 0 .3166667 0 .36600004 C 0 .416 .008666667 .46233336 .026 .505 C .044 .54833337 .068333338 .58566668 .09900001 .61700007 C .13033335 .649 .16700001 .674 .209 .69200006 C .25100003 .71066668 .296 .72 .344 .72 C .37400005 .72 .4026667 .7163334 .43 .70900008 C .45733334 .7023334 .4826667 .692 .50600007 .67800006 C .52933338 .6646667 .55 .6483334 .568 .629 C .58666667 .6103334 .602 .589 .614 .565 L .469 .45400004 C .45700003 .48200003 .4386667 .5043333 .414 .521 C .39000003 .53833338 .36433337 .54700008 .337 .54700008 C .317 .54700008 .29833336 .54233339 .28100003 .533 C .26433335 .5236667 .24966669 .51066669 .23700002 .49400003 C .22500003 .47733335 .21533335 .45733334 .208 .43400003 C .20133335 .41133333 .19800002 .38633336 .19800002 .359 C .19800002 .331 .20133335 .3056667 .208 .28300003 C .21533335 .26033334 .22533334 .24066668 .238 .224 C .25066666 .208 .2656667 .19533335 .28300003 .186 C .301 .17733334 .32066668 .17300003 .342 .17300001 C .36600004 .17300003 .38900004 .179 .411 .191 C .4336667 .20300001 .4546667 .22033334 .474 .243 L .349 .243 L .349 .38300003 L .64100006 .38300003 L .64100006 .0050000005 L .48000003 .0050000005 L .48000003 .063 Z "/>
</symbol>
<use xlink:href="#font_4_83" transform="matrix(64.2,0,0,-64.2,35.769659,195.33136)" fill="#ffcf48"/>
<use xlink:href="#font_4_1" transform="matrix(64.2,0,0,-64.2,74.029949,194.75356)" fill="#ffcf48"/>
<use xlink:href="#font_4_60" transform="matrix(64.2,0,0,-64.2,121.53479,194.75356)" fill="#ffcf48"/>
<use xlink:href="#font_4_83" transform="matrix(64.2,0,0,-64.2,173.27594,195.33136)" fill="#ffcf48"/>
<use xlink:href="#font_4_88" transform="matrix(64.2,0,0,-64.2,212.6918,194.75356)" fill="#ffcf48"/>
<use xlink:href="#font_4_1" transform="matrix(64.2,0,0,-64.2,251.59407,194.75356)" fill="#ffcf48"/>
<use xlink:href="#font_4_3a" transform="matrix(64.2,0,0,-64.2,296.65928,195.07456)" fill="#ffcf48"/>
</g>
</g>
</svg>
