<?xml version="1.0" encoding="UTF-8"?>
<svg xmlns="http://www.w3.org/2000/svg" xmlns:xlink="http://www.w3.org/1999/xlink" width="208pt" height="154pt" viewBox="0 -35 104 72" version="1.1">
<g id="surface1">
<path style=" stroke:none;fill-rule:nonzero;fill:rgb(0%,0%,0%);fill-opacity:1;" d="M 18.332031 12.792969 C 18.191406 13.355469 17.96875 13.859375 17.664062 14.300781 C 17.355469 14.742188 16.964844 15.101562 16.476562 15.367188 C 16.003906 15.632812 15.425781 15.777344 14.757812 15.792969 L 14.703125 15.796875 C 13.90625 15.804688 13.214844 15.621094 12.625 15.226562 C 12.269531 14.992188 11.996094 14.667969 11.78125 14.28125 L 10.535156 15.105469 C 10.820312 15.542969 11.167969 15.914062 11.574219 16.203125 C 12.003906 16.507812 12.484375 16.730469 13.027344 16.882812 C 13.164062 16.921875 13.3125 16.941406 13.453125 16.96875 C 13.433594 17.027344 13.421875 17.085938 13.40625 17.144531 C 13.25 17.558594 13.039062 17.917969 12.757812 18.21875 C 12.480469 18.519531 12.148438 18.757812 11.757812 18.933594 C 11.371094 19.109375 10.925781 19.203125 10.417969 19.214844 C 9.734375 19.230469 9.140625 19.117188 8.640625 18.871094 C 8.140625 18.621094 7.726562 18.28125 7.402344 17.855469 C 7.074219 17.425781 6.828125 16.921875 6.667969 16.339844 C 6.5 15.757812 6.414062 15.136719 6.398438 14.480469 C 6.386719 13.878906 6.449219 13.296875 6.585938 12.734375 C 6.722656 12.171875 6.945312 11.667969 7.253906 11.226562 C 7.558594 10.785156 7.953125 10.429688 8.4375 10.160156 C 8.914062 9.894531 9.488281 9.753906 10.160156 9.734375 L 10.214844 9.734375 C 11.007812 9.71875 11.703125 9.910156 12.292969 10.296875 C 12.644531 10.539062 12.921875 10.859375 13.136719 11.246094 L 14.378906 10.425781 C 14.09375 9.984375 13.75 9.617188 13.339844 9.324219 C 12.914062 9.023438 12.429688 8.792969 11.890625 8.644531 C 11.753906 8.605469 11.605469 8.589844 11.464844 8.5625 C 11.480469 8.5 11.488281 8.4375 11.511719 8.382812 C 11.664062 7.96875 11.878906 7.613281 12.15625 7.308594 C 12.433594 7.007812 12.769531 6.769531 13.152344 6.597656 C 13.542969 6.417969 13.988281 6.324219 14.496094 6.3125 C 15.183594 6.296875 15.777344 6.414062 16.273438 6.660156 C 16.773438 6.90625 17.1875 7.242188 17.515625 7.671875 C 17.839844 8.101562 18.085938 8.605469 18.25 9.1875 C 18.410156 9.769531 18.503906 10.390625 18.515625 11.046875 C 18.53125 11.648438 18.46875 12.230469 18.332031 12.792969 Z M 19.660156 8.550781 C 19.425781 7.824219 19.082031 7.199219 18.628906 6.671875 C 18.175781 6.144531 17.613281 5.734375 16.941406 5.441406 C 16.265625 5.152344 15.484375 5.019531 14.59375 5.039062 C 13.125 5.066406 11.976562 5.5 11.144531 6.324219 C 10.578125 6.890625 10.179688 7.601562 9.945312 8.457031 C 9.164062 8.5 8.457031 8.667969 7.847656 8.972656 C 7.171875 9.304688 6.609375 9.746094 6.167969 10.304688 C 5.722656 10.867188 5.394531 11.515625 5.171875 12.257812 C 4.953125 13 4.851562 13.789062 4.871094 14.628906 C 4.890625 15.46875 5.019531 16.25 5.253906 16.976562 C 5.492188 17.699219 5.835938 18.328125 6.289062 18.855469 C 6.742188 19.382812 7.304688 19.792969 7.976562 20.085938 C 8.648438 20.378906 9.429688 20.511719 10.320312 20.492188 C 11.789062 20.457031 12.941406 20.03125 13.769531 19.203125 C 14.335938 18.640625 14.734375 17.929688 14.96875 17.070312 C 15.753906 17.027344 16.457031 16.859375 17.070312 16.558594 C 17.746094 16.222656 18.304688 15.78125 18.746094 15.21875 C 19.195312 14.660156 19.523438 14.011719 19.746094 13.269531 C 19.964844 12.527344 20.0625 11.738281 20.046875 10.898438 C 20.027344 10.058594 19.898438 9.277344 19.660156 8.550781 Z M 19.660156 8.550781 "/>
<path style=" stroke:none;fill-rule:nonzero;fill:rgb(0%,0%,0%);fill-opacity:1;" d="M 12.457031 1.722656 C 6.378906 1.722656 1.433594 6.675781 1.433594 12.761719 C 1.433594 18.851562 6.378906 23.800781 12.457031 23.800781 C 18.535156 23.800781 23.480469 18.851562 23.480469 12.761719 C 23.480469 6.675781 18.535156 1.722656 12.457031 1.722656 Z M 12.457031 25.148438 C 5.640625 25.148438 0.0898438 19.59375 0.0898438 12.761719 C 0.0898438 5.9375 5.640625 0.378906 12.457031 0.378906 C 19.277344 0.378906 24.824219 5.9375 24.824219 12.761719 C 24.824219 19.59375 19.277344 25.148438 12.457031 25.148438 Z M 12.457031 25.148438 "/>
<path style=" stroke:none;fill-rule:nonzero;fill:rgb(0%,0%,0%);fill-opacity:1;" d="M 41.066406 1.746094 C 40.5625 1.394531 39.96875 1.222656 39.285156 1.222656 C 38.699219 1.222656 38.199219 1.335938 37.78125 1.554688 C 37.367188 1.769531 37.023438 2.066406 36.753906 2.4375 C 36.484375 2.8125 36.285156 3.230469 36.15625 3.710938 C 36.03125 4.183594 35.964844 4.683594 35.964844 5.195312 C 35.964844 5.753906 36.03125 6.285156 36.15625 6.78125 C 36.285156 7.28125 36.484375 7.71875 36.753906 8.089844 C 37.023438 8.457031 37.371094 8.753906 37.789062 8.976562 C 38.210938 9.195312 38.714844 9.308594 39.300781 9.308594 C 39.726562 9.308594 40.113281 9.234375 40.449219 9.089844 C 40.78125 8.949219 41.070312 8.75 41.3125 8.5 C 41.554688 8.25 41.742188 7.949219 41.882812 7.597656 C 42.015625 7.25 42.101562 6.878906 42.128906 6.472656 L 43.433594 6.472656 C 43.300781 7.710938 42.878906 8.671875 42.15625 9.359375 C 41.429688 10.046875 40.445312 10.390625 39.1875 10.390625 C 38.429688 10.390625 37.765625 10.261719 37.203125 9.996094 C 36.632812 9.734375 36.160156 9.375 35.789062 8.917969 C 35.410156 8.460938 35.128906 7.921875 34.941406 7.296875 C 34.753906 6.675781 34.660156 6.003906 34.660156 5.292969 C 34.660156 4.574219 34.757812 3.90625 34.964844 3.277344 C 35.164062 2.648438 35.460938 2.101562 35.847656 1.636719 C 36.234375 1.164062 36.71875 0.796875 37.300781 0.527344 C 37.882812 0.257812 38.550781 0.125 39.300781 0.125 C 39.8125 0.125 40.296875 0.1875 40.757812 0.328125 C 41.210938 0.464844 41.621094 0.667969 41.976562 0.933594 C 42.335938 1.199219 42.632812 1.53125 42.871094 1.929688 C 43.105469 2.328125 43.265625 2.789062 43.335938 3.308594 L 42.03125 3.308594 C 41.886719 2.613281 41.5625 2.09375 41.066406 1.746094 Z M 41.066406 1.746094 "/>
<path style=" stroke:none;fill-rule:nonzero;fill:rgb(0%,0%,0%);fill-opacity:1;" d="M 50.0625 6.113281 L 48.429688 1.539062 L 48.402344 1.539062 L 46.738281 6.113281 Z M 49.152344 0.355469 L 52.984375 10.171875 L 51.546875 10.171875 L 50.476562 7.214844 L 46.328125 7.214844 L 45.226562 10.171875 L 43.894531 10.171875 L 47.710938 0.355469 Z M 49.152344 0.355469 "/>
<path style=" stroke:none;fill-rule:nonzero;fill:rgb(0%,0%,0%);fill-opacity:1;" d="M 55.757812 0.355469 L 58.84375 8.605469 L 61.949219 0.355469 L 63.734375 0.355469 L 63.734375 10.171875 L 62.496094 10.171875 L 62.496094 2.003906 L 62.46875 2.003906 L 59.40625 10.171875 L 58.296875 10.171875 L 55.234375 2.003906 L 55.207031 2.003906 L 55.207031 10.171875 L 53.972656 10.171875 L 53.972656 0.355469 Z M 55.757812 0.355469 "/>
<path style=" stroke:none;fill-rule:nonzero;fill:rgb(0%,0%,0%);fill-opacity:1;" d="M 69.761719 5.058594 C 70.5 5.0625 71.042969 4.914062 71.386719 4.605469 C 71.730469 4.292969 71.898438 3.839844 71.898438 3.253906 C 71.898438 2.667969 71.730469 2.222656 71.386719 1.917969 C 71.042969 1.613281 70.5 1.453125 69.761719 1.453125 L 67.207031 1.453125 L 67.207031 5.058594 Z M 70.199219 0.355469 C 71.1875 0.355469 71.9375 0.609375 72.441406 1.117188 C 72.949219 1.628906 73.203125 2.339844 73.203125 3.253906 C 73.203125 4.171875 72.949219 4.886719 72.441406 5.398438 C 71.9375 5.917969 71.1875 6.167969 70.199219 6.15625 L 67.207031 6.15625 L 67.207031 10.171875 L 65.902344 10.171875 L 65.902344 0.355469 Z M 70.199219 0.355469 "/>
<path style=" stroke:none;fill-rule:nonzero;fill:rgb(0%,0%,0%);fill-opacity:1;" d="M 81.621094 9.449219 C 80.949219 10.078125 80 10.390625 78.761719 10.390625 C 77.503906 10.390625 76.511719 10.089844 75.804688 9.488281 C 75.097656 8.890625 74.742188 7.933594 74.742188 6.621094 L 74.742188 0.355469 L 76.046875 0.355469 L 76.046875 6.621094 C 76.046875 7.507812 76.28125 8.167969 76.75 8.625 C 77.214844 9.074219 77.886719 9.308594 78.761719 9.308594 C 79.597656 9.308594 80.230469 9.074219 80.664062 8.625 C 81.101562 8.167969 81.316406 7.507812 81.316406 6.621094 L 81.316406 0.355469 L 82.621094 0.355469 L 82.621094 6.621094 C 82.621094 7.878906 82.289062 8.820312 81.621094 9.449219 Z M 81.621094 9.449219 "/>
<path style=" stroke:none;fill-rule:nonzero;fill:rgb(0%,0%,0%);fill-opacity:1;" d="M 89.617188 1.695312 C 89.183594 1.378906 88.625 1.222656 87.949219 1.222656 C 87.671875 1.222656 87.402344 1.25 87.136719 1.304688 C 86.871094 1.359375 86.636719 1.453125 86.433594 1.578125 C 86.222656 1.707031 86.058594 1.882812 85.9375 2.09375 C 85.8125 2.308594 85.75 2.582031 85.75 2.898438 C 85.75 3.203125 85.84375 3.445312 86.019531 3.636719 C 86.195312 3.824219 86.4375 3.976562 86.730469 4.097656 C 87.027344 4.214844 87.367188 4.3125 87.742188 4.390625 C 88.117188 4.46875 88.496094 4.554688 88.886719 4.644531 C 89.273438 4.738281 89.660156 4.84375 90.03125 4.96875 C 90.410156 5.089844 90.746094 5.257812 91.042969 5.46875 C 91.339844 5.679688 91.578125 5.949219 91.753906 6.269531 C 91.9375 6.589844 92.023438 6.988281 92.023438 7.480469 C 92.023438 8 91.910156 8.445312 91.675781 8.816406 C 91.4375 9.1875 91.140625 9.488281 90.773438 9.722656 C 90.410156 9.960938 90 10.128906 89.546875 10.234375 C 89.09375 10.335938 88.644531 10.390625 88.195312 10.390625 C 87.644531 10.390625 87.125 10.320312 86.636719 10.1875 C 86.148438 10.046875 85.714844 9.839844 85.34375 9.5625 C 84.976562 9.28125 84.683594 8.921875 84.46875 8.488281 C 84.25 8.054688 84.144531 7.535156 84.144531 6.9375 L 85.378906 6.9375 C 85.378906 7.351562 85.460938 7.710938 85.617188 8.003906 C 85.78125 8.304688 85.992188 8.546875 86.25 8.746094 C 86.511719 8.933594 86.816406 9.074219 87.164062 9.167969 C 87.515625 9.257812 87.867188 9.308594 88.234375 9.308594 C 88.527344 9.308594 88.824219 9.277344 89.121094 9.222656 C 89.417969 9.167969 89.6875 9.074219 89.925781 8.941406 C 90.160156 8.804688 90.351562 8.628906 90.5 8.398438 C 90.644531 8.167969 90.71875 7.875 90.71875 7.515625 C 90.71875 7.179688 90.628906 6.902344 90.453125 6.691406 C 90.277344 6.484375 90.035156 6.308594 89.742188 6.175781 C 89.441406 6.042969 89.105469 5.941406 88.730469 5.855469 C 88.355469 5.773438 87.972656 5.683594 87.582031 5.601562 C 87.195312 5.511719 86.8125 5.410156 86.4375 5.296875 C 86.0625 5.183594 85.726562 5.035156 85.429688 4.84375 C 85.128906 4.65625 84.894531 4.417969 84.714844 4.117188 C 84.535156 3.820312 84.449219 3.445312 84.449219 2.992188 C 84.449219 2.5 84.546875 2.070312 84.75 1.707031 C 84.949219 1.351562 85.21875 1.050781 85.554688 0.816406 C 85.882812 0.582031 86.265625 0.410156 86.691406 0.292969 C 87.117188 0.179688 87.550781 0.125 88.003906 0.125 C 88.503906 0.125 88.972656 0.179688 89.402344 0.300781 C 89.832031 0.421875 90.210938 0.609375 90.535156 0.863281 C 90.863281 1.121094 91.117188 1.445312 91.304688 1.832031 C 91.492188 2.222656 91.59375 2.6875 91.613281 3.226562 L 90.375 3.226562 C 90.304688 2.523438 90.046875 2.011719 89.617188 1.695312 Z M 89.617188 1.695312 "/>
<path style=" stroke:none;fill-rule:nonzero;fill:rgb(0%,0%,0%);fill-opacity:1;" d="M 41.066406 16.464844 C 40.5625 16.117188 39.96875 15.945312 39.285156 15.945312 C 38.699219 15.945312 38.199219 16.054688 37.78125 16.273438 C 37.367188 16.492188 37.023438 16.789062 36.753906 17.160156 C 36.484375 17.53125 36.285156 17.953125 36.15625 18.433594 C 36.03125 18.90625 35.964844 19.402344 35.964844 19.914062 C 35.964844 20.472656 36.03125 21.007812 36.15625 21.503906 C 36.285156 22.003906 36.484375 22.441406 36.753906 22.8125 C 37.023438 23.179688 37.371094 23.472656 37.789062 23.695312 C 38.210938 23.917969 38.714844 24.027344 39.300781 24.027344 C 39.726562 24.027344 40.113281 23.957031 40.449219 23.8125 C 40.78125 23.671875 41.070312 23.472656 41.3125 23.21875 C 41.554688 22.96875 41.742188 22.671875 41.882812 22.320312 C 42.015625 21.972656 42.101562 21.601562 42.128906 21.195312 L 43.433594 21.195312 C 43.300781 22.433594 42.878906 23.394531 42.15625 24.082031 C 41.429688 24.769531 40.445312 25.109375 39.1875 25.109375 C 38.429688 25.109375 37.765625 24.984375 37.203125 24.71875 C 36.632812 24.457031 36.160156 24.097656 35.789062 23.640625 C 35.410156 23.179688 35.128906 22.640625 34.941406 22.019531 C 34.753906 21.394531 34.660156 20.722656 34.660156 20.011719 C 34.660156 19.296875 34.757812 18.625 34.964844 18 C 35.164062 17.371094 35.460938 16.824219 35.847656 16.359375 C 36.234375 15.890625 36.71875 15.519531 37.300781 15.25 C 37.882812 14.980469 38.550781 14.84375 39.300781 14.84375 C 39.8125 14.84375 40.296875 14.910156 40.757812 15.050781 C 41.210938 15.1875 41.621094 15.390625 41.976562 15.65625 C 42.335938 15.921875 42.632812 16.253906 42.871094 16.652344 C 43.105469 17.046875 43.265625 17.511719 43.335938 18.035156 L 42.03125 18.035156 C 41.886719 17.335938 41.5625 16.8125 41.066406 16.464844 Z M 41.066406 16.464844 "/>
<path style=" stroke:none;fill-rule:nonzero;fill:rgb(0%,0%,0%);fill-opacity:1;" d="M 46 21.449219 C 46.125 21.933594 46.328125 22.363281 46.605469 22.75 C 46.878906 23.132812 47.226562 23.445312 47.660156 23.675781 C 48.089844 23.910156 48.601562 24.027344 49.195312 24.027344 C 49.792969 24.027344 50.304688 23.910156 50.734375 23.675781 C 51.164062 23.445312 51.515625 23.132812 51.792969 22.75 C 52.066406 22.363281 52.265625 21.933594 52.394531 21.449219 C 52.523438 20.96875 52.585938 20.480469 52.585938 19.988281 C 52.585938 19.488281 52.523438 19.003906 52.394531 18.523438 C 52.265625 18.039062 52.066406 17.609375 51.792969 17.222656 C 51.515625 16.835938 51.164062 16.527344 50.734375 16.296875 C 50.304688 16.0625 49.792969 15.945312 49.195312 15.945312 C 48.601562 15.945312 48.089844 16.0625 47.660156 16.296875 C 47.226562 16.527344 46.878906 16.835938 46.605469 17.222656 C 46.328125 17.609375 46.125 18.039062 46 18.523438 C 45.871094 19.003906 45.804688 19.488281 45.804688 19.988281 C 45.804688 20.480469 45.871094 20.96875 46 21.449219 Z M 44.796875 18.054688 C 44.992188 17.433594 45.289062 16.890625 45.683594 16.414062 C 46.074219 15.933594 46.566406 15.554688 47.152344 15.269531 C 47.734375 14.984375 48.417969 14.84375 49.195312 14.84375 C 49.972656 14.84375 50.65625 14.984375 51.242188 15.269531 C 51.828125 15.554688 52.316406 15.933594 52.710938 16.414062 C 53.101562 16.890625 53.398438 17.433594 53.59375 18.054688 C 53.792969 18.671875 53.890625 19.316406 53.890625 19.988281 C 53.890625 20.65625 53.792969 21.300781 53.59375 21.917969 C 53.398438 22.539062 53.101562 23.085938 52.710938 23.558594 C 52.316406 24.039062 51.828125 24.410156 51.242188 24.695312 C 50.65625 24.976562 49.972656 25.109375 49.195312 25.109375 C 48.417969 25.109375 47.734375 24.976562 47.152344 24.695312 C 46.566406 24.410156 46.074219 24.039062 45.683594 23.558594 C 45.289062 23.085938 44.992188 22.539062 44.796875 21.917969 C 44.601562 21.300781 44.5 20.65625 44.5 19.988281 C 44.5 19.316406 44.601562 18.671875 44.796875 18.054688 Z M 44.796875 18.054688 "/>
<path style=" stroke:none;fill-rule:nonzero;fill:rgb(0%,0%,0%);fill-opacity:1;" d="M 56.855469 15.078125 L 62.019531 23.039062 L 62.046875 23.039062 L 62.046875 15.078125 L 63.28125 15.078125 L 63.28125 24.894531 L 61.851562 24.894531 L 56.734375 17.019531 L 56.703125 17.019531 L 56.703125 24.894531 L 55.46875 24.894531 L 55.46875 15.078125 Z M 56.855469 15.078125 "/>
<path style=" stroke:none;fill-rule:nonzero;fill:rgb(0%,0%,0%);fill-opacity:1;" d="M 66.769531 15.078125 L 71.925781 23.039062 L 71.957031 23.039062 L 71.957031 15.078125 L 73.191406 15.078125 L 73.191406 24.894531 L 71.765625 24.894531 L 66.644531 17.019531 L 66.613281 17.019531 L 66.613281 24.894531 L 65.382812 24.894531 L 65.382812 15.078125 Z M 66.769531 15.078125 "/>
<path style=" stroke:none;fill-rule:nonzero;fill:rgb(0%,0%,0%);fill-opacity:1;" d="M 82.070312 15.078125 L 82.070312 16.175781 L 76.609375 16.175781 L 76.609375 19.296875 L 81.703125 19.296875 L 81.703125 20.398438 L 76.609375 20.398438 L 76.609375 23.789062 L 82.113281 23.789062 L 82.113281 24.894531 L 75.304688 24.894531 L 75.304688 15.078125 Z M 82.070312 15.078125 "/>
<path style=" stroke:none;fill-rule:nonzero;fill:rgb(0%,0%,0%);fill-opacity:1;" d="M 89.613281 16.464844 C 89.117188 16.117188 88.523438 15.945312 87.835938 15.945312 C 87.253906 15.945312 86.75 16.054688 86.332031 16.273438 C 85.914062 16.492188 85.574219 16.789062 85.304688 17.160156 C 85.035156 17.53125 84.832031 17.953125 84.707031 18.433594 C 84.578125 18.90625 84.511719 19.402344 84.511719 19.914062 C 84.511719 20.472656 84.578125 21.007812 84.707031 21.503906 C 84.832031 22.003906 85.035156 22.441406 85.304688 22.8125 C 85.574219 23.179688 85.917969 23.472656 86.339844 23.695312 C 86.761719 23.917969 87.265625 24.027344 87.847656 24.027344 C 88.28125 24.027344 88.660156 23.957031 88.996094 23.8125 C 89.332031 23.671875 89.621094 23.472656 89.863281 23.21875 C 90.101562 22.96875 90.296875 22.671875 90.429688 22.320312 C 90.570312 21.972656 90.648438 21.601562 90.679688 21.195312 L 91.980469 21.195312 C 91.855469 22.433594 91.425781 23.394531 90.707031 24.082031 C 89.984375 24.769531 88.992188 25.109375 87.742188 25.109375 C 86.984375 25.109375 86.316406 24.984375 85.75 24.71875 C 85.183594 24.457031 84.714844 24.097656 84.335938 23.640625 C 83.960938 23.179688 83.679688 22.640625 83.492188 22.019531 C 83.304688 21.394531 83.210938 20.722656 83.210938 20.011719 C 83.210938 19.296875 83.3125 18.625 83.511719 18 C 83.710938 17.371094 84.007812 16.824219 84.398438 16.359375 C 84.785156 15.890625 85.273438 15.519531 85.855469 15.25 C 86.4375 14.980469 87.101562 14.84375 87.847656 14.84375 C 88.363281 14.84375 88.847656 14.910156 89.304688 15.050781 C 89.761719 15.1875 90.171875 15.390625 90.527344 15.65625 C 90.882812 15.921875 91.179688 16.253906 91.417969 16.652344 C 91.660156 17.046875 91.8125 17.511719 91.886719 18.035156 L 90.585938 18.035156 C 90.4375 17.335938 90.113281 16.8125 89.613281 16.464844 Z M 89.613281 16.464844 "/>
<path style=" stroke:none;fill-rule:nonzero;fill:rgb(0%,0%,0%);fill-opacity:1;" d="M 92.558594 16.175781 L 92.558594 15.078125 L 100.398438 15.078125 L 100.398438 16.175781 L 97.128906 16.175781 L 97.128906 24.894531 L 95.828125 24.894531 L 95.828125 16.175781 Z M 92.558594 16.175781 "/>
</g>
</svg>
