<?xml version="1.0" standalone="no"?>
<!DOCTYPE svg PUBLIC "-//W3C//DTD SVG 20010904//EN"
 "http://www.w3.org/TR/2001/REC-SVG-20010904/DTD/svg10.dtd">
<svg version="1.0" xmlns="http://www.w3.org/2000/svg"
 width="2171.000000pt" height="1394.000000pt" viewBox="0 -540 2171.000000 864.000000"
 preserveAspectRatio="xMidYMid meet">

<g transform="translate(0.000000,584.000000) scale(0.100000,-0.100000)"
fill="#000000" stroke="none">
<path d="M2920 5824 c-868 -78 -1544 -389 -2110 -970 -345 -354 -559 -722
-696 -1198 -162 -560 -131 -1177 87 -1736 254 -651 779 -1221 1434 -1555 779
-398 1705 -472 2532 -204 516 167 938 423 1294 786 242 246 292 320 293 438 2
191 -171 340 -373 321 -102 -9 -181 -53 -259 -146 -408 -482 -930 -781 -1532
-880 -723 -118 -1416 48 -1985 475 -628 471 -965 1210 -895 1960 63 668 429
1256 1030 1657 391 261 835 399 1335 415 544 17 1057 -128 1507 -426 224 -149
368 -283 590 -551 41 -49 71 -74 122 -100 62 -31 75 -34 154 -34 74 0 96 4
147 27 75 35 140 96 171 162 29 60 32 167 9 236 -27 79 -243 332 -420 492
-491 444 -1094 718 -1785 813 -110 15 -549 27 -650 18z"/>
<path d="M9856 4348 c-9 -13 -16 -43 -16 -70 0 -77 48 -109 105 -72 22 14 25
24 25 75 0 48 -4 60 -22 73 -33 23 -74 20 -92 -6z"/>
<path d="M15236 4354 c-179 -43 -303 -177 -325 -350 -22 -180 40 -330 171
-415 78 -50 141 -69 250 -76 159 -10 284 31 393 130 l59 53 -55 32 -54 31 -40
-38 c-55 -52 -85 -69 -152 -86 -70 -18 -140 -19 -214 -1 -146 34 -226 127
-236 276 -14 201 106 332 319 347 135 9 232 -24 303 -103 l30 -33 48 29 c26
17 47 34 47 39 0 16 -108 108 -152 130 -106 50 -268 65 -392 35z"/>
<path d="M16866 4348 c-9 -13 -16 -43 -16 -70 0 -77 48 -109 105 -72 22 14 25
24 25 75 0 48 -4 60 -22 73 -33 23 -74 20 -92 -6z"/>
<path d="M6260 3940 l0 -420 415 0 415 0 0 199 c0 190 1 199 23 232 35 52 90
79 165 79 34 0 78 -6 96 -14 64 -27 66 -36 66 -278 l0 -218 66 0 66 0 -4 228
c-3 213 -4 230 -26 269 -63 118 -264 159 -434 88 -13 -5 -18 -2 -18 9 0 13
-12 16 -65 16 l-65 0 0 -250 0 -250 -285 0 -285 0 0 135 0 135 253 2 252 3 3
53 3 52 -255 0 -256 0 0 120 0 120 285 0 285 0 0 55 0 55 -350 0 -350 0 0
-420z"/>
<path d="M9190 3940 l0 -420 64 0 65 0 3 213 c3 205 4 213 27 246 13 18 42 42
65 52 50 22 143 25 191 5 60 -25 65 -48 65 -296 l0 -220 66 0 66 0 -4 238 -3
239 -30 48 c-21 33 -47 57 -85 79 -47 26 -66 31 -146 34 -88 4 -118 -1 -196
-33 -17 -7 -18 3 -18 114 l0 121 -65 0 -65 0 0 -420z"/>
<path d="M11180 4232 l0 -129 -52 26 c-74 36 -217 42 -298 12 -71 -27 -124
-71 -160 -135 -17 -28 -30 -46 -30 -39 0 6 -22 36 -50 66 -65 71 -127 98 -241
105 -191 11 -321 -71 -363 -229 l-15 -54 0 148 -1 147 -65 0 -65 0 0 -315 0
-315 65 0 65 0 1 133 c1 98 3 121 9 90 13 -63 44 -116 96 -162 61 -53 132 -75
244 -74 144 2 240 51 299 155 l27 48 17 -34 c74 -156 296 -219 469 -133 l48
24 0 -24 c0 -22 3 -23 65 -23 l65 0 0 420 0 420 -65 0 -65 0 0 -128z m-97
-206 c62 -30 91 -85 95 -176 4 -84 -12 -133 -60 -177 -54 -50 -178 -70 -251
-39 -153 63 -155 326 -3 397 52 25 163 22 219 -5z m-657 -15 c42 -19 86 -68
99 -108 l6 -23 -210 0 c-236 0 -234 0 -188 67 51 76 197 108 293 64z m204
-251 c0 -5 -22 -10 -49 -10 -45 0 -51 -3 -69 -34 -43 -74 -138 -113 -240 -99
-88 11 -150 58 -167 126 l-7 27 266 0 c171 0 266 -4 266 -10z"/>
<path d="M15810 3940 l0 -420 64 0 65 0 3 213 c3 205 4 213 27 246 13 18 42
42 65 52 50 22 143 25 191 5 60 -25 65 -48 65 -296 l0 -220 66 0 66 0 -4 238
-3 239 -30 48 c-21 33 -47 57 -85 79 -47 26 -66 31 -146 34 -88 4 -118 -1
-196 -33 -17 -7 -18 3 -18 114 l0 121 -65 0 -65 0 0 -420z"/>
<path d="M13401 4339 c-141 -24 -240 -112 -241 -216 0 -32 -1 -33 -45 -33
l-45 0 0 -55 0 -55 45 0 45 0 0 -230 0 -230 60 0 60 0 0 230 0 230 70 0 70 0
0 55 0 55 -70 0 c-78 0 -81 4 -55 66 18 44 72 69 168 79 l67 7 0 54 0 54 -37
-1 c-21 -1 -62 -5 -92 -10z"/>
<path d="M1963 4301 c-71 -24 -117 -62 -144 -118 -24 -48 -24 -52 -29 -473 -5
-417 -5 -426 -28 -475 -40 -86 -71 -111 -159 -125 -69 -12 -113 -44 -144 -107
-30 -63 -34 -211 -6 -289 29 -82 97 -134 178 -134 40 0 103 -52 130 -106 24
-49 24 -51 29 -454 l5 -405 28 -58 c16 -31 43 -68 61 -82 75 -57 19 -55 1255
-55 1248 0 1193 -3 1279 60 64 46 87 98 87 200 0 76 -3 91 -30 139 -35 63 -92
104 -166 120 -33 7 -323 11 -848 11 -767 0 -801 1 -862 20 -78 24 -130 65
-160 127 -20 41 -23 63 -23 163 -1 99 3 122 22 165 30 65 66 102 127 131 l50
24 491 0 c519 0 573 4 656 46 147 74 169 294 43 417 -68 66 -79 67 -625 67
-531 0 -568 3 -653 54 -40 24 -58 43 -81 88 -27 54 -29 65 -30 180 -1 105 2
130 20 168 30 64 67 105 122 132 l47 23 850 5 850 5 55 26 c112 53 156 132
148 268 -8 131 -67 215 -174 247 -40 12 -232 14 -1183 14 -1064 -1 -1139 -2
-1188 -19z"/>
<path d="M13625 4275 c-50 -49 -24 -155 38 -155 42 0 67 35 67 95 0 39 -35 85
-65 85 -9 0 -27 -11 -40 -25z"/>
<path d="M13780 4287 c-22 -11 -25 -20 -28 -71 -3 -66 14 -96 55 -96 39 0 63
34 63 88 0 53 -5 64 -37 81 -26 13 -22 13 -53 -2z"/>
<path d="M7690 4200 l0 -80 -60 0 -60 0 0 -60 0 -60 60 0 60 0 0 -240 0 -240
60 0 60 0 0 240 0 240 65 0 66 0 -3 58 -3 57 -62 3 -63 3 0 79 0 80 -60 0 -60
0 0 -80z"/>
<path d="M17700 4200 l0 -80 -60 0 -60 0 0 -60 0 -60 60 0 60 0 0 -240 0 -240
60 0 60 0 0 240 0 240 64 0 64 0 4 -162 c3 -144 6 -168 26 -205 44 -84 129
-125 262 -126 66 0 96 5 134 21 58 26 56 26 56 7 0 -12 14 -15 65 -15 l65 0
-2 303 -3 302 -62 3 -63 3 0 -197 c0 -212 -6 -244 -57 -284 -67 -52 -219 -46
-268 11 l-25 31 0 219 0 219 -59 0 c-33 0 -62 -3 -64 -7 -3 -5 -35 -6 -71 -5
l-66 4 0 79 0 79 -60 0 -60 0 0 -80z"/>
<path d="M13434 4136 c-3 -8 -4 -113 -2 -233 3 -204 5 -221 26 -265 43 -87
127 -130 257 -130 72 -1 105 6 178 37 12 5 17 3 17 -9 0 -13 12 -16 65 -16
l65 0 -2 313 -3 312 -60 0 -60 0 -5 -210 c-6 -239 -12 -259 -85 -295 -49 -24
-149 -27 -198 -7 -61 26 -62 28 -67 281 l-5 231 -58 3 c-44 2 -59 -1 -63 -12z"/>
<path d="M16815 4143 c-67 -5 -148 -24 -187 -44 l-38 -19 0 25 c0 24 -2 25
-65 25 l-65 0 0 -305 0 -305 65 0 65 0 0 158 c0 86 5 175 11 196 26 93 89 144
190 153 l59 6 0 -257 0 -256 65 0 65 0 0 315 0 315 -62 -2 c-35 -1 -81 -3
-103 -5z"/>
<path d="M8100 4131 c-53 -17 -109 -52 -132 -83 -18 -26 -23 -46 -23 -95 0
-110 56 -152 248 -183 63 -10 129 -25 146 -35 27 -14 32 -21 29 -47 -5 -52
-42 -71 -140 -71 -109 -1 -151 18 -172 76 -8 23 -17 53 -18 67 -3 24 -6 25
-63 25 l-60 0 3 -45 c6 -101 54 -171 145 -211 44 -19 69 -23 157 -23 88 0 113
4 158 23 121 54 159 176 81 265 -38 44 -79 60 -225 86 -140 25 -166 38 -162
82 4 43 53 68 134 68 108 0 147 -26 160 -110 l7 -41 61 3 61 3 -3 40 c-8 95
-71 172 -164 200 -53 16 -184 19 -228 6z"/>
<path d="M8749 4126 c-114 -30 -194 -110 -225 -223 -40 -147 22 -296 149 -357
144 -70 353 -45 439 52 33 39 72 116 66 134 -3 9 -92 48 -109 48 -4 0 -9 -12
-12 -27 -9 -44 -49 -96 -89 -116 -41 -20 -130 -26 -191 -14 -42 9 -101 56
-123 98 -20 40 -18 145 5 194 37 83 113 120 233 113 79 -4 111 -23 144 -86 12
-23 24 -48 26 -54 6 -18 108 30 108 51 0 32 -61 121 -99 147 -79 52 -215 69
-322 40z"/>
<path d="M11531 4119 c-49 -16 -76 -33 -116 -73 -66 -65 -90 -130 -89 -236 1
-99 29 -165 96 -225 64 -57 133 -79 248 -78 148 2 250 57 304 166 37 73 36 77
-33 77 -56 0 -60 -2 -79 -34 -43 -74 -138 -113 -240 -99 -88 11 -150 58 -167
126 l-7 27 281 0 281 0 0 -125 0 -125 65 0 65 0 0 199 c0 190 1 199 23 232 35
52 90 79 165 79 34 0 78 -6 96 -14 64 -27 66 -36 66 -278 l0 -218 66 0 66 0
-4 228 c-3 213 -4 230 -26 269 -63 118 -264 159 -434 88 -13 -5 -18 -2 -18 9
0 13 -12 16 -65 16 l-65 0 -1 -107 c-1 -92 -3 -103 -12 -74 -16 52 -99 135
-159 161 -77 34 -220 38 -307 9z m245 -108 c42 -19 86 -68 99 -108 l6 -23
-210 0 c-236 0 -234 0 -188 67 51 76 197 108 293 64z"/>
<path d="M14320 4126 c-25 -7 -60 -20 -77 -30 l-33 -17 0 26 c0 24 -2 25 -65
25 l-65 0 0 -305 0 -305 65 0 65 0 0 158 c0 86 5 175 11 196 26 93 89 144 190
153 l59 6 0 53 0 54 -52 -1 c-29 0 -73 -6 -98 -13z"/>
<path d="M17190 4131 c-53 -17 -109 -52 -132 -83 -18 -26 -23 -46 -23 -95 0
-110 56 -152 248 -183 63 -10 129 -25 146 -35 27 -14 32 -21 29 -47 -5 -52
-42 -71 -140 -71 -109 -1 -151 18 -172 76 -8 23 -17 53 -18 67 -3 24 -6 25
-63 25 l-60 0 3 -45 c6 -101 54 -171 145 -211 44 -19 69 -23 157 -23 88 0 113
4 158 23 121 54 159 176 81 265 -38 44 -79 60 -225 86 -140 25 -166 38 -162
82 4 43 53 68 134 68 108 0 147 -26 160 -110 l7 -41 61 3 61 3 -3 40 c-8 95
-71 172 -164 200 -53 16 -184 19 -228 6z"/>
<path d="M18770 4131 c-53 -17 -109 -52 -132 -83 -18 -26 -23 -46 -23 -95 0
-110 56 -152 248 -183 63 -10 129 -25 146 -35 27 -14 32 -21 29 -47 -5 -52
-42 -71 -140 -71 -109 -1 -151 18 -172 76 -8 23 -17 53 -18 67 -3 24 -6 25
-63 25 l-60 0 3 -45 c6 -101 54 -171 145 -211 44 -19 69 -23 157 -23 88 0 113
4 158 23 121 54 159 176 81 265 -38 44 -79 60 -225 86 -140 25 -166 38 -162
82 4 43 53 68 134 68 108 0 147 -26 160 -110 l7 -41 61 3 61 3 -3 40 c-8 95
-71 172 -164 200 -53 16 -184 19 -228 6z"/>
<path d="M9794 2990 c-11 -4 -34 -24 -52 -44 l-32 -37 0 -115 c0 -125 9 -156
56 -193 18 -14 41 -21 71 -21 51 0 76 11 121 53 l32 31 0 119 c0 65 -4 127
-10 137 -5 10 -31 32 -56 49 -48 31 -89 38 -130 21z"/>
<path d="M6180 2000 l0 -980 140 0 140 0 0 445 0 445 640 0 640 0 0 -445 0
-445 145 0 145 0 -2 978 -3 977 -140 0 -140 0 -3 -407 -2 -408 -640 0 -640 0
-2 408 -3 407 -137 3 -138 3 0 -981z"/>
<path d="M11340 2670 c0 -170 -2 -310 -4 -310 -3 0 -25 14 -50 30 -113 77
-231 110 -409 117 -160 6 -256 -6 -370 -47 -216 -79 -386 -272 -442 -502 -40
-165 -27 -368 34 -523 58 -150 189 -293 334 -364 134 -65 187 -76 387 -76 152
0 185 3 253 23 85 24 158 58 225 104 l42 29 0 -71 0 -71 138 3 137 3 0 980 0
980 -137 3 -138 3 0 -311z m-330 -436 c198 -60 309 -209 325 -440 21 -290
-154 -511 -433 -546 -275 -35 -488 90 -558 327 -27 90 -25 259 4 351 51 166
173 283 335 320 78 17 250 12 327 -12z"/>
<path d="M13330 2000 l0 -980 140 0 140 0 -2 978 -3 977 -137 3 -138 3 0 -981z"/>
<path d="M13760 1995 l0 -986 138 3 137 3 5 67 5 67 60 -38 c79 -50 171 -86
275 -107 109 -22 299 -15 414 15 259 68 441 249 505 501 17 67 20 72 26 45 38
-178 82 -263 190 -370 91 -92 157 -130 290 -171 85 -26 100 -28 290 -28 176 0
210 3 280 22 167 47 285 121 369 233 47 63 129 220 142 272 l6 27 -140 0 -140
0 -35 -63 c-64 -114 -175 -198 -304 -232 -75 -20 -268 -19 -352 0 -84 20 -172
68 -217 118 -40 44 -89 142 -98 200 l-7 37 657 0 656 0 -4 153 c-8 222 -46
329 -166 459 -98 105 -216 172 -382 214 -112 28 -393 26 -503 -4 -156 -43
-277 -119 -375 -234 -64 -76 -127 -198 -144 -279 l-12 -60 -23 93 c-36 149
-90 247 -192 349 -70 70 -102 94 -171 127 -124 59 -185 73 -350 79 -212 8
-339 -20 -481 -106 l-64 -39 -5 307 -5 306 -137 3 -138 3 0 -986z m900 256
c97 -16 166 -49 231 -108 101 -94 145 -196 155 -358 18 -290 -139 -500 -403
-535 -240 -32 -455 66 -547 251 -47 94 -60 162 -53 289 13 252 129 407 337
449 30 6 64 13 75 15 39 7 151 6 205 -3z m1602 -52 c160 -33 289 -148 334
-294 l13 -45 -500 0 -499 0 6 28 c33 137 175 269 330 306 72 17 244 20 316 5z"/>
<path d="M9710 1755 l0 -735 140 0 140 0 -2 733 -3 732 -137 3 -138 3 0 -736z"/>
<path d="M8660 2441 c-157 -34 -275 -96 -376 -198 -162 -161 -235 -386 -204
-628 24 -191 74 -300 195 -420 91 -92 157 -130 290 -171 85 -26 100 -28 290
-28 176 0 210 3 280 22 167 47 285 121 369 233 47 63 129 220 142 272 l6 27
-140 0 -140 0 -35 -63 c-64 -114 -175 -198 -304 -232 -75 -20 -268 -19 -352 0
-84 20 -172 68 -217 118 -40 44 -89 142 -98 200 l-7 37 657 0 656 0 -4 153
c-8 222 -46 329 -166 459 -95 103 -204 165 -367 210 -106 29 -361 34 -475 9z
m362 -242 c160 -33 289 -148 334 -294 l13 -45 -500 0 -499 0 6 28 c33 137 175
269 330 306 72 17 244 20 316 5z"/>
<path d="M12280 2441 c-157 -34 -275 -96 -376 -198 -162 -161 -235 -386 -204
-628 24 -191 74 -300 195 -420 91 -92 157 -130 290 -171 85 -26 100 -28 290
-28 176 0 210 3 280 22 167 47 285 121 369 233 47 63 129 220 142 272 l6 27
-140 0 -140 0 -35 -63 c-64 -114 -175 -198 -304 -232 -75 -20 -268 -19 -352 0
-84 20 -172 68 -217 118 -40 44 -89 142 -98 200 l-7 37 657 0 656 0 -4 153
c-8 222 -46 329 -166 459 -95 103 -204 165 -367 210 -106 29 -361 34 -475 9z
m362 -242 c160 -33 289 -148 334 -294 l13 -45 -500 0 -499 0 6 28 c33 137 175
269 330 306 72 17 244 20 316 5z"/>
<path d="M17626 2449 c-130 -19 -254 -60 -336 -110 l-45 -28 -3 59 -3 60 -139
0 -140 0 0 -705 0 -705 140 0 140 0 0 338 c1 357 8 433 50 544 73 193 220 290
462 305 l98 6 0 124 0 123 -82 -1 c-46 -1 -110 -5 -142 -10z"/>
<path d="M18425 2449 c-269 -44 -488 -225 -568 -468 -35 -105 -48 -235 -36
-352 20 -192 72 -305 200 -431 l88 -88 -105 0 -104 0 0 -42 c0 -69 38 -205 77
-280 103 -196 371 -305 700 -284 322 21 522 124 619 321 63 129 64 135 64 908
l0 697 -140 0 -140 0 0 -60 0 -60 -40 29 c-56 41 -170 86 -262 105 -82 17
-266 20 -353 5z m265 -249 c36 -6 94 -25 130 -42 316 -154 351 -651 59 -838
-140 -90 -391 -104 -545 -29 -143 69 -234 233 -234 421 0 99 15 168 52 242 95
188 301 283 538 246z m387 -1127 c-14 -132 -66 -212 -170 -262 -82 -40 -182
-55 -342 -49 -149 6 -222 27 -285 84 -39 36 -84 123 -96 188 -6 36 -5 39 12
32 143 -56 201 -69 338 -74 89 -3 165 0 210 8 90 16 218 62 276 100 25 16 49
29 54 29 5 1 6 -25 3 -56z"/>
</g>
</svg>
