<?xml version="1.0" standalone="no"?>
<!DOCTYPE svg PUBLIC "-//W3C//DTD SVG 20010904//EN"
 "http://www.w3.org/TR/2001/REC-SVG-20010904/DTD/svg10.dtd">
<svg version="1.0" xmlns="http://www.w3.org/2000/svg"
 width="332.000000pt" height="314.000000pt" viewBox="0 -50 332.000000 264.000000"
 preserveAspectRatio="xMidYMid meet">

<g transform="translate(0.000000,164.000000) scale(0.100000,-0.100000)"
fill="#000000" stroke="none">
<path d="M1031 1620 c-156 -33 -262 -91 -377 -205 -74 -73 -98 -106 -132 -175
-61 -123 -77 -193 -76 -330 1 -112 16 -191 55 -287 7 -18 11 -34 9 -37 -3 -2
-115 -6 -250 -8 l-245 -3 -3 -83 -3 -82 179 0 180 0 396 392 397 391 392 -395
392 -396 430 7 c237 4 420 8 408 9 -21 2 -23 7 -23 71 0 47 4 71 12 73 22 8
-375 18 -684 18 l-299 0 17 33 c61 116 81 324 46 463 -11 44 -33 109 -50 145
-82 179 -263 332 -458 384 -70 20 -251 28 -313 15z"/>
<path d="M768 775 l-387 -385 -183 0 -183 0 0 -80 0 -80 213 0 214 0 356 349
355 350 356 -349 356 -349 340 0 c187 0 334 3 328 6 -9 3 -13 28 -13 73 0 63
2 69 23 73 12 2 -122 5 -298 6 l-320 1 -385 385 -385 384 -387 -384z"/>
<path d="M10 101 c0 -61 4 -101 10 -101 6 0 10 20 10 45 0 38 3 45 20 45 26 0
26 16 0 23 -14 3 -20 14 -20 31 0 21 5 26 26 26 37 0 25 24 -14 28 l-32 3 0
-100z"/>
<path d="M110 100 c0 -60 4 -100 10 -100 6 0 10 18 10 41 0 45 15 45 25 -1 7
-30 21 -47 32 -36 3 3 -2 24 -11 46 -15 37 -15 43 -1 56 33 34 3 94 -47 94
-16 0 -18 -11 -18 -100z m48 45 c-4 -33 -22 -33 -26 0 -2 18 1 25 13 25 12 0
15 -7 13 -25z"/>
<path d="M230 100 c0 -60 4 -100 10 -100 6 0 10 40 10 100 0 60 -4 100 -10
100 -6 0 -10 -40 -10 -100z"/>
<path d="M297 193 c-4 -3 -7 -48 -7 -100 l0 -93 35 0 c19 0 35 5 35 10 0 6 -9
10 -20 10 -16 0 -20 7 -20 35 0 28 4 35 20 35 11 0 20 5 20 10 0 6 -9 10 -20
10 -16 0 -20 7 -20 30 0 23 4 30 20 30 11 0 20 7 20 15 0 15 -50 22 -63 8z"/>
<path d="M396 192 c-2 -4 -4 -48 -3 -97 2 -88 3 -90 27 -93 44 -5 63 19 68 86
4 55 2 63 -21 86 -25 25 -61 34 -71 18z m62 -85 c3 -55 -8 -87 -29 -87 -5 0
-9 34 -9 76 0 66 2 75 18 72 13 -2 18 -15 20 -61z"/>
<path d="M527 193 c-4 -3 -7 -48 -7 -100 0 -76 3 -93 15 -93 11 0 15 12 16 43
l1 42 15 -42 c8 -24 21 -43 28 -43 11 0 11 8 -2 46 -11 34 -12 49 -4 57 19 19
13 75 -8 87 -23 12 -45 13 -54 3z m48 -33 c8 -13 -4 -50 -16 -50 -5 0 -9 14
-9 30 0 30 13 40 25 20z"/>
<path d="M646 193 c-3 -3 -6 -48 -6 -100 0 -76 3 -93 15 -93 12 0 15 17 15 94
0 87 -7 116 -24 99z"/>
<path d="M730 180 c-26 -26 -28 -124 -4 -158 17 -25 54 -27 62 -3 3 9 0 11 -7
7 -24 -15 -41 15 -41 75 0 47 4 60 19 68 10 6 21 7 25 4 3 -3 6 1 6 10 0 24
-35 22 -60 -3z"/>
<path d="M826 193 c-3 -3 -6 -48 -6 -100 0 -76 3 -93 15 -93 11 0 15 12 15 50
0 43 3 50 20 50 17 0 20 -7 20 -50 0 -27 5 -50 10 -50 6 0 10 40 10 100 0 60
-4 100 -10 100 -5 0 -10 -18 -10 -40 0 -33 -3 -40 -20 -40 -16 0 -20 7 -20 34
0 34 -11 52 -24 39z"/>
<path d="M1026 193 c-3 -3 -6 -48 -6 -100 0 -76 3 -93 15 -93 11 0 15 12 15
50 0 43 3 50 20 50 17 0 20 -7 20 -51 0 -36 4 -49 13 -47 8 3 12 32 12 98 0
66 -4 95 -12 98 -9 2 -13 -9 -13 -37 0 -34 -3 -41 -20 -41 -16 0 -20 7 -20 34
0 34 -11 52 -24 39z"/>
<path d="M1185 178 c-27 -120 -35 -155 -35 -165 0 -20 18 -15 25 7 8 26 41 26
48 0 7 -28 31 -26 24 3 -3 12 -13 57 -22 100 -17 78 -30 96 -40 55z m25 -89
c0 -20 -5 -29 -16 -29 -11 0 -14 5 -10 16 3 9 6 25 6 35 0 11 5 17 10 14 6 -3
10 -19 10 -36z"/>
<path d="M1287 194 c-11 -11 -8 -153 3 -175 11 -19 35 -24 64 -13 13 5 16 24
16 100 0 119 -18 125 -22 7 -2 -70 -6 -88 -18 -88 -12 0 -16 17 -18 80 -3 77
-10 103 -25 89z"/>
<path d="M1415 176 c-18 -27 -14 -41 27 -97 23 -30 15 -63 -13 -56 -12 3 -19
0 -19 -9 0 -17 41 -19 58 -2 19 19 14 59 -14 95 -28 37 -29 68 -1 68 25 0 26
19 0 23 -14 2 -27 -5 -38 -22z"/>
<path d="M1517 179 c-18 -24 -11 -51 24 -98 25 -35 19 -66 -11 -58 -13 3 -20
0 -20 -9 0 -17 41 -19 58 -2 19 19 14 59 -14 95 -28 37 -29 68 -1 68 25 0 26
19 0 23 -13 2 -27 -5 -36 -19z"/>
<path d="M1676 185 c-23 -24 -20 -46 15 -93 26 -35 29 -45 18 -58 -7 -8 -18
-13 -26 -10 -7 3 -13 -1 -13 -9 0 -18 41 -20 58 -3 19 19 14 50 -14 91 -28 41
-28 73 -1 71 22 -2 17 20 -5 24 -9 2 -23 -4 -32 -13z"/>
<path d="M1760 185 c0 -8 7 -15 15 -15 12 0 15 -16 15 -86 0 -64 3 -85 13 -82
8 3 13 32 15 84 2 57 7 81 18 87 24 13 6 27 -37 27 -28 0 -39 -4 -39 -15z"/>
<path d="M1877 194 c-11 -11 -8 -153 3 -175 12 -21 50 -25 68 -7 15 15 17 188
2 188 -5 0 -11 -39 -12 -87 -2 -70 -6 -88 -18 -88 -12 0 -16 17 -18 80 -3 77
-10 103 -25 89z"/>
<path d="M2007 193 c-4 -3 -7 -48 -7 -100 l0 -93 29 0 c37 0 58 21 67 65 9 50
-3 102 -29 120 -23 16 -49 20 -60 8z m47 -29 c28 -28 16 -144 -14 -144 -6 0
-10 35 -10 80 0 44 2 80 4 80 3 0 12 -7 20 -16z"/>
<path d="M2140 100 c0 -60 4 -100 10 -100 6 0 10 40 10 100 0 60 -4 100 -10
100 -6 0 -10 -40 -10 -100z"/>
<path d="M2207 193 c-4 -3 -7 -48 -7 -100 l0 -93 35 0 c19 0 35 5 35 10 0 6
-9 10 -20 10 -16 0 -20 7 -20 35 0 28 4 35 20 35 11 0 20 5 20 10 0 6 -9 10
-20 10 -16 0 -20 7 -20 30 0 23 4 30 20 30 11 0 20 7 20 15 0 15 -50 22 -63 8z"/>
<path d="M2307 194 c-11 -12 -8 -194 3 -194 6 0 10 27 10 62 0 70 9 68 36 -9
10 -29 22 -53 26 -53 4 0 8 40 8 90 0 50 0 92 0 95 0 3 -3 5 -7 5 -5 0 -10
-25 -13 -57 l-5 -57 -19 55 c-21 60 -29 73 -39 63z"/>
<path d="M2437 193 c-14 -13 -6 -23 18 -23 14 0 25 -3 25 -6 0 -4 -11 -38 -25
-76 -14 -38 -25 -73 -25 -79 0 -5 18 -9 40 -9 22 0 40 5 40 10 0 6 -11 10 -25
10 -14 0 -25 4 -25 10 0 5 11 39 25 76 33 87 32 94 -8 94 -19 0 -37 -3 -40 -7z"/>
<path d="M2550 101 l0 -101 35 0 c39 0 48 17 13 22 -18 2 -24 11 -26 35 -3 28
0 33 17 33 12 0 21 5 21 10 0 6 -9 10 -20 10 -31 0 -28 57 3 62 33 5 27 23
-10 26 l-33 3 0 -100z"/>
<path d="M2650 101 c0 -61 4 -101 10 -101 6 0 10 28 11 63 l0 62 23 -60 c13
-32 29 -61 35 -63 14 -5 15 184 1 193 -6 4 -10 -17 -10 -56 0 -70 -8 -69 -35
4 -10 26 -22 50 -26 53 -5 3 -9 -40 -9 -95z"/>
<path d="M2770 185 c0 -8 7 -15 15 -15 12 0 15 -16 15 -85 0 -50 4 -85 10 -85
6 0 10 35 10 85 0 69 3 85 15 85 8 0 15 7 15 15 0 11 -11 15 -40 15 -29 0 -40
-4 -40 -15z"/>
<path d="M2880 100 c0 -60 4 -100 10 -100 6 0 10 18 10 41 0 45 15 45 25 -1 7
-30 21 -47 32 -36 3 3 -2 24 -11 46 -15 37 -15 43 -1 56 33 34 3 94 -47 94
-16 0 -18 -11 -18 -100z m48 43 c-4 -39 -28 -42 -28 -4 0 21 5 31 16 31 11 0
14 -8 12 -27z"/>
<path d="M2997 194 c-11 -11 -8 -153 3 -175 12 -21 50 -25 68 -7 15 15 17 188
2 188 -5 0 -11 -39 -12 -87 -2 -70 -6 -88 -18 -88 -12 0 -16 17 -18 80 -3 77
-10 103 -25 89z"/>
<path d="M3136 192 c-3 -5 -8 -50 -12 -100 -5 -66 -4 -92 5 -92 6 0 11 18 11
44 0 60 16 67 24 11 8 -53 23 -66 32 -28 3 15 10 42 14 58 8 29 8 29 9 4 2
-45 13 -89 23 -89 9 0 4 124 -8 179 -8 36 -24 12 -39 -56 l-12 -58 -13 63
c-12 61 -23 81 -34 64z"/>
<path d="M940 70 c0 -5 11 -10 25 -10 14 0 25 5 25 10 0 6 -11 10 -25 10 -14
0 -25 -4 -25 -10z"/>
</g>
</svg>
