<?xml version="1.0" standalone="no"?>
<!DOCTYPE svg PUBLIC "-//W3C//DTD SVG 20010904//EN"
 "http://www.w3.org/TR/2001/REC-SVG-20010904/DTD/svg10.dtd">
<svg version="1.0" xmlns="http://www.w3.org/2000/svg"
 width="200pt" height="200pt" viewBox="0 0 600.000000 600.000000"
 preserveAspectRatio="xMidYMid meet">

<g transform="translate(0.000000,600.000000) scale(0.100000,-0.100000)"
fill="#000000" stroke="none">
<path d="M4235 5554 c-16 -2 -70 -9 -120 -15 -126 -15 -514 -90 -802 -154
-1115 -250 -2006 -559 -2439 -846 -303 -201 -500 -497 -581 -870 -26 -120 -25
-448 1 -569 60 -279 192 -546 368 -747 227 -259 822 -860 1163 -1174 489 -450
874 -779 1046 -894 184 -123 426 -224 629 -261 141 -26 383 -24 517 4 340 73
639 270 836 552 292 418 530 1135 766 2305 135 672 145 750 146 1135 0 327 -4
370 -55 565 -84 319 -223 524 -490 722 -144 106 -319 185 -505 225 -87 18
-400 33 -480 22z m-227 -1987 c23 -23 42 -49 42 -58 0 -8 -39 -53 -86 -99
-132 -130 -165 -186 -179 -304 l-7 -56 105 0 c122 0 127 -3 127 -87 0 -76 -9
-82 -125 -85 l-100 -3 -3 -589 c-1 -415 -5 -593 -13 -603 -8 -9 -37 -13 -92
-13 -130 0 -117 -81 -117 736 0 476 4 720 11 756 17 79 74 180 146 258 77 83
207 190 232 190 9 0 36 -19 59 -43z m-1091 -539 c24 -23 43 -49 43 -58 0 -8
-32 -47 -71 -85 -39 -39 -84 -88 -100 -109 -37 -50 -39 -103 -4 -144 13 -16
112 -83 220 -148 108 -65 220 -138 249 -161 138 -109 188 -280 131 -445 -34
-96 -134 -176 -265 -209 -114 -29 -505 -11 -598 27 l-33 13 3 73 3 73 125 -5
c69 -3 195 -5 280 -5 132 0 162 3 198 19 58 26 84 71 85 146 1 100 -24 125
-285 287 -224 139 -295 196 -331 262 -38 69 -46 153 -20 212 35 79 261 298
308 299 10 0 39 -19 62 -42z m1943 22 c35 -6 70 -16 78 -22 9 -8 12 -33 10
-87 l-3 -76 -65 1 c-36 0 -130 2 -210 4 -103 2 -158 -1 -190 -11 -64 -19 -141
-98 -171 -174 -23 -58 -24 -69 -24 -325 0 -256 1 -267 24 -324 30 -76 87 -137
154 -167 48 -21 63 -23 202 -19 83 2 179 4 215 4 l65 1 3 -76 c2 -54 -1 -79
-10 -87 -37 -30 -342 -52 -456 -32 -156 26 -290 126 -357 264 -60 126 -69 182
-69 441 1 203 3 239 22 308 56 206 188 340 376 383 68 16 294 12 406 -6z"/>
</g>
</svg>
