<?xml version="1.0" standalone="no"?>
<!DOCTYPE svg PUBLIC "-//W3C//DTD SVG 20010904//EN"
 "http://www.w3.org/TR/2001/REC-SVG-20010904/DTD/svg10.dtd">
<svg version="1.0" xmlns="http://www.w3.org/2000/svg"
 width="1219.000000pt" height="519.000000pt" viewBox="0 -100 1219.000000 319.000000"
 preserveAspectRatio="xMidYMid meet">

<g transform="translate(0.000000,119.000000) scale(0.100000,-0.100000)"
fill="#000000" stroke="none">
<path d="M0 735 l0 -455 50 0 50 0 0 259 0 258 38 7 c72 12 166 7 191 -10 45
-32 51 -67 51 -299 l0 -215 50 0 50 0 0 198 c0 287 -13 341 -90 387 -46 26
-145 25 -224 -4 -33 -11 -61 -21 -63 -21 -1 0 -3 79 -3 175 l0 175 -50 0 -50
0 0 -455z"/>
<path d="M1750 735 l0 -455 50 0 50 0 0 259 0 258 38 7 c72 12 166 7 191 -10
45 -32 51 -67 51 -299 l0 -215 50 0 50 0 0 204 c0 283 -12 335 -90 381 -46 26
-145 25 -224 -4 -33 -11 -61 -21 -63 -21 -1 0 -3 79 -3 175 l0 175 -50 0 -50
0 0 -455z"/>
<path d="M3330 735 l0 -455 45 0 45 0 0 254 c0 193 3 257 13 263 6 4 53 9 103
11 90 4 92 4 125 -26 l34 -30 3 -236 3 -236 50 0 49 0 0 223 c0 233 -7 286
-43 325 -55 60 -160 73 -271 33 -33 -11 -61 -21 -63 -21 -1 0 -3 79 -3 175 l0
175 -45 0 -45 0 0 -455z"/>
<path d="M4560 735 l0 -455 45 0 45 0 0 455 0 455 -45 0 -45 0 0 -455z"/>
<path d="M6850 1029 l0 -161 -32 9 c-18 4 -64 8 -103 8 -165 -1 -274 -128
-275 -320 0 -96 10 -135 50 -198 57 -89 175 -120 297 -77 69 24 73 24 73 5 0
-12 14 -15 65 -15 l65 0 0 455 0 455 -70 0 -70 0 0 -161z m-31 -235 l31 -6 0
-203 0 -203 -52 -6 c-132 -16 -210 58 -212 199 -2 154 96 246 233 219z"/>
<path d="M7320 735 l0 -455 50 0 50 0 0 254 c0 191 3 257 12 262 7 5 51 10 98
11 160 7 170 -11 170 -309 l0 -218 50 0 50 0 0 204 c0 289 -13 339 -95 380
-51 26 -141 24 -219 -3 -33 -12 -61 -21 -63 -21 -1 0 -3 79 -3 175 l0 175 -50
0 -50 0 0 -455z"/>
<path d="M9120 1021 l0 -169 -47 15 c-110 34 -242 -7 -309 -96 -92 -120 -85
-337 13 -433 72 -70 150 -84 265 -48 76 24 78 24 78 5 0 -11 12 -15 45 -15
l45 0 0 455 0 455 -45 0 -45 0 0 -169z m-12 -219 c9 -7 12 -59 10 -228 l-3
-219 -52 -9 c-66 -11 -133 -1 -175 27 -94 64 -116 246 -43 358 34 53 94 79
180 79 39 0 76 -4 83 -8z"/>
<path d="M9920 735 l0 -455 45 0 45 0 0 455 0 455 -45 0 -45 0 0 -455z"/>
<path d="M10160 746 l0 -444 53 -14 c82 -21 232 -17 288 8 66 31 114 78 146
142 25 50 28 68 28 152 0 77 -5 104 -23 145 -66 144 -199 183 -374 110 -17 -7
-18 5 -18 169 l0 176 -50 0 -50 0 0 -444z m311 41 c66 -35 99 -104 99 -208 0
-164 -74 -242 -230 -243 l-75 -1 -3 232 -2 232 22 4 c68 13 146 6 189 -16z"/>
<path d="M8491 1091 c-30 -55 -1 -104 57 -99 47 4 72 42 56 85 -8 25 -15 28
-56 31 -38 2 -49 -1 -57 -17z"/>
<path d="M5715 885 c-33 -7 -73 -18 -88 -24 -36 -14 -37 -14 -37 4 0 12 -14
15 -70 15 l-70 0 0 -300 0 -300 70 0 70 0 0 249 0 250 56 7 c75 9 133 0 158
-26 20 -19 21 -32 24 -250 l3 -230 70 0 70 0 -1 248 -1 247 28 6 c57 13 138 9
162 -7 45 -32 51 -68 51 -289 l0 -205 70 0 70 0 0 223 c0 122 -5 240 -10 261
-28 121 -141 158 -326 106 l-81 -22 -39 20 c-55 28 -109 33 -179 17z"/>
<path d="M791 880 c-54 -12 -111 -48 -145 -93 -43 -56 -58 -113 -59 -217 -1
-78 3 -104 21 -145 45 -99 114 -145 228 -153 99 -6 159 15 217 77 63 67 80
126 75 254 -5 114 -21 158 -80 214 -60 58 -162 83 -257 63z m157 -77 c15 -10
38 -41 52 -69 22 -42 25 -62 25 -149 0 -113 -13 -160 -57 -211 -38 -43 -92
-59 -150 -44 -84 23 -128 107 -128 245 0 168 68 261 183 252 27 -2 61 -13 75
-24z"/>
<path d="M5055 876 c-69 -31 -113 -110 -102 -184 11 -65 42 -97 140 -147 114
-59 127 -70 127 -110 0 -52 -29 -70 -114 -70 -39 0 -90 4 -114 8 l-43 9 3 -43
3 -44 55 -13 c84 -20 206 -11 258 18 68 39 101 109 87 191 -10 59 -47 95 -157
150 -100 50 -121 71 -110 112 10 37 47 50 130 44 42 -3 85 -8 95 -12 16 -7 18
-3 15 36 -3 42 -4 43 -53 56 -64 16 -182 16 -220 -1z"/>
<path d="M1399 866 c-128 -45 -189 -145 -189 -306 0 -95 23 -162 73 -214 72
-75 175 -92 335 -55 47 11 52 15 52 39 l0 27 -62 -10 c-133 -20 -226 14 -267
97 -37 73 -36 191 2 267 36 73 84 102 176 103 36 1 85 -2 109 -7 43 -7 43 -7
40 20 -2 22 -10 30 -43 39 -53 16 -181 16 -226 0z"/>
<path d="M2430 861 c-55 -29 -80 -74 -80 -142 0 -51 4 -63 30 -93 17 -19 71
-55 120 -80 49 -26 96 -56 105 -69 22 -31 19 -72 -9 -104 -23 -27 -29 -28
-108 -28 -45 0 -98 3 -116 7 -33 8 -33 7 -30 -25 3 -30 7 -33 53 -44 194 -44
329 35 312 184 -7 65 -31 91 -137 150 -51 29 -102 61 -113 72 -22 22 -26 74
-7 96 28 34 122 42 208 19 19 -6 22 -3 22 24 0 27 -4 31 -44 41 -70 17 -166
14 -206 -8z"/>
<path d="M2980 871 c-76 -23 -136 -78 -172 -156 -19 -41 -23 -67 -23 -150 0
-88 3 -107 27 -157 58 -124 181 -162 377 -116 46 10 51 14 51 38 l0 27 -62
-10 c-125 -19 -224 14 -262 88 -25 48 -34 178 -17 243 27 100 120 151 249 137
36 -4 71 -9 79 -12 9 -4 13 4 13 24 0 27 -4 30 -51 41 -56 13 -170 15 -209 3z"/>
<path d="M8075 869 c-46 -13 -103 -66 -131 -120 -31 -63 -45 -169 -33 -257 27
-189 166 -256 417 -202 46 10 52 15 52 37 l0 25 -90 -7 c-190 -15 -280 48
-280 198 l0 37 195 0 195 0 0 51 c0 27 -5 70 -11 94 -15 59 -78 131 -127 145
-44 12 -145 12 -187 -1z m162 -65 c32 -20 53 -66 56 -121 l2 -48 -142 -3 -143
-3 0 29 c0 128 128 210 227 146z"/>
<path d="M9492 867 c-54 -20 -99 -63 -128 -124 -25 -49 -29 -73 -32 -159 -5
-126 12 -185 68 -243 68 -70 183 -87 348 -51 44 10 52 15 52 34 0 23 -1 23
-117 22 -109 -1 -122 1 -162 24 -53 30 -80 77 -88 154 l-6 56 199 0 200 0 -7
73 c-9 113 -50 181 -126 213 -39 17 -156 17 -201 1z m162 -58 c34 -16 56 -62
59 -121 l2 -53 -142 -3 c-143 -3 -143 -3 -143 20 0 73 48 151 103 167 34 11
85 6 121 -10z"/>
<path d="M10904 861 c-52 -24 -109 -91 -131 -155 -21 -64 -23 -203 -4 -270 41
-141 199 -198 404 -146 40 11 47 16 47 37 l0 25 -88 -7 c-181 -15 -272 49
-272 190 l0 45 195 0 195 0 0 48 c0 109 -48 198 -125 233 -54 25 -166 25 -221
0z m184 -58 c29 -18 49 -64 54 -123 l3 -45 -142 -3 -143 -3 0 38 c0 45 35 119
63 135 57 30 120 31 165 1z"/>
<path d="M11503 855 c-61 -23 -63 -23 -63 -5 0 17 -7 20 -50 20 l-50 0 0 -295
0 -295 50 0 50 0 0 254 0 255 46 7 c45 6 114 1 148 -12 15 -6 17 -1 14 42 l-3
49 -40 2 c-23 2 -66 -8 -102 -22z"/>
<path d="M11871 868 c-50 -14 -113 -60 -145 -106 -38 -55 -56 -122 -56 -208 0
-93 27 -167 77 -216 72 -70 150 -84 265 -48 34 11 67 20 72 20 5 0 6 -31 4
-70 -9 -128 -51 -156 -218 -146 -58 3 -117 8 -132 12 -26 6 -28 4 -28 -24 0
-28 4 -33 43 -44 24 -7 95 -13 167 -13 115 0 129 2 169 25 89 51 86 32 89 451
l3 369 -46 0 c-25 0 -45 -4 -45 -9 0 -5 -21 -3 -47 5 -52 16 -122 17 -172 2z
m207 -66 c9 -7 12 -59 10 -228 l-3 -219 -65 -9 c-74 -10 -132 2 -174 35 -84
66 -100 245 -31 350 34 53 94 79 180 79 39 0 76 -4 83 -8z"/>
<path d="M3942 621 c3 -234 4 -251 24 -277 55 -75 140 -92 262 -55 83 25 92
26 92 6 0 -11 12 -15 45 -15 l45 0 0 295 0 295 -45 0 -45 0 0 -254 0 -255 -57
-11 c-84 -18 -159 -9 -189 22 -37 36 -43 81 -44 301 l0 197 -45 0 -46 0 3
-249z"/>
<path d="M8500 575 l0 -295 45 0 45 0 0 295 0 295 -45 0 -45 0 0 -295z"/>
<path d="M7100 225 l0 -55 -50 0 c-49 0 -50 -1 -50 -30 0 -29 1 -30 50 -30
l50 0 0 -55 c0 -54 0 -55 30 -55 30 0 30 1 30 55 l0 55 55 0 c54 0 55 0 55 30
0 30 -1 30 -55 30 l-55 0 0 55 c0 54 0 55 -30 55 -30 0 -30 -1 -30 -55z"/>
<path d="M4670 140 l0 -30 140 0 140 0 0 30 0 30 -140 0 -140 0 0 -30z"/>
</g>
</svg>
