<?xml version="1.0" encoding="UTF-8" standalone="no"?>
<!DOCTYPE svg PUBLIC "-//W3C//DTD SVG 1.1//EN" "http://www.w3.org/Graphics/SVG/1.1/DTD/svg11.dtd">
<svg xmlns="http://www.w3.org/2000/svg" xmlns:xlink="http://www.w3.org/1999/xlink" version="1.1" width="375pt" height="375pt" viewBox="0 0 375 375">
<g enable-background="new">
<clipPath id="cp0">
<path transform="matrix(.24,0,0,.24,0,0)" d="M 0 0 L 1562.5 0 L 1562.5 1593.75 L 0 1593.75 Z " fill-rule="evenodd"/>
</clipPath>
<g clip-path="url(#cp0)">
<path transform="matrix(.75,0,0,.75,0,-765)" d="M 0 1020 L 500 1020 L 500 1520 L 0 1520 Z " fill="#ffffff"/>
</g>
<clipPath id="cp1">
<path transform="matrix(.24,0,0,.24,0,0)" d="M 0 0 L 1562.5 0 L 1562.5 1562.5 L 0 1562.5 Z " fill-rule="evenodd"/>
</clipPath>
<g clip-path="url(#cp1)">
<path transform="matrix(.75,0,0,.75,0,0)" d="M 0 0 L 500 0 L 500 500 L 0 500 Z " fill="#ffffff"/>
</g>
<clipPath id="cp2">
<path transform="matrix(.24,0,0,.24,0,0)" d="M 0 0 L 1562.5 0 L 1562.5 1562.5 L 0 1562.5 Z " fill-rule="evenodd"/>
</clipPath>
<g clip-path="url(#cp2)">
<g id="Layer-1" data-name="P">
</g>
<symbol id="font_3_b">
<path d="M .358 .644 C .30866669 .644 .2656667 .635 .229 .61700007 C .193 .59966668 .163 .57666668 .139 .54800006 C .115 .52000007 .097 .48833338 .08500001 .453 C .07366667 .41766668 .068 .38266669 .068 .34800003 C .068 .30866669 .07566667 .27 .091000009 .23200003 C .10633334 .19466669 .12733335 .16133334 .154 .13200002 C .18133335 .10333333 .21300002 .080000009 .24900002 .062000004 C .285 .044666668 .324 .036000004 .36600004 .036000004 C .37800003 .036000004 .392 .037333337 .40800003 .040000004 C .42466668 .04266667 .441 .04766667 .45700003 .055000005 C .47300006 .063 .4876667 .074 .50100007 .088 C .51500007 .102 .5256667 .12033334 .53300008 .143 L .54300007 .143 L .54300007 .032 C .53300008 .032 .5223334 .03066667 .51100006 .028 C .50033339 .025333336 .48833335 .022333334 .475 .019000002 C .45766668 .014333335 .43833337 .010000001 .41700004 .0060000007 C .39633335 .002 .37433336 0 .351 0 C .293 0 .242 .010000001 .19800002 .030000002 C .154 .05 .11733333 .076000008 .088 .108 C .058666666 .14000002 .036666674 .17600002 .022000004 .21600002 C .0073333347 .2566667 0 .29766668 0 .33900003 C 0 .38033334 .0073333347 .42133335 .022000004 .462 C .036666674 .50266668 .059000005 .53900006 .089 .57100006 C .118999999 .6036667 .15666668 .63000008 .202 .65000006 C .24733335 .67 .3006667 .68 .36200003 .68 C .38400004 .68 .40366666 .678 .421 .674 C .439 .6700001 .455 .66600009 .469 .662 C .479 .6586667 .488 .656 .49600003 .65400007 C .50466677 .6526667 .5130001 .652 .521 .652 L .521 .541 L .51100006 .541 C .507 .56166669 .4996667 .5786667 .489 .592 C .47833336 .606 .46566669 .61666676 .451 .624 C .437 .63133338 .4216667 .6363333 .40500004 .639 C .38900004 .6423333 .37333334 .644 .358 .644 Z "/>
</symbol>
<symbol id="font_3_20">
<path d="M 0 .010000001 L .004999999 .010000001 C .010333333 .010000001 .015000001 .011666668 .019000002 .015000001 C .023 .019000002 .026333332 .023666667 .029 .029000001 C .032333334 .034333335 .03466667 .040000004 .036 .046000005 C .038000004 .052000006 .039000006 .05766667 .039000006 .063 L .039000006 .59800007 C .039000006 .6026667 .038000004 .60800006 .036 .614 C .03466667 .62000009 .032333334 .6256667 .029 .63100007 C .026333332 .6363334 .023 .6406667 .019000002 .64400008 C .015000001 .64800009 .010333333 .65000006 .004999999 .65000006 L 0 .65000006 L 0 .66 L .14400001 .66 L .14400001 .65000006 L .13900002 .65000006 C .13366668 .65000006 .12900001 .64800009 .125 .64400008 C .121 .6406667 .11766667 .6363334 .11500001 .63100007 C .112333338 .6256667 .11000001 .62000009 .10800001 .614 C .10666668 .60800006 .106000009 .6026667 .106000009 .59800007 L .106000009 .037 L .325 .037 C .33766667 .037 .3486667 .040000004 .35800005 .046000005 C .36733339 .052000006 .37500004 .059333337 .38100005 .068 C .3876667 .07733334 .39233337 .087000008 .39500005 .097 C .3983334 .10766667 .4 .11733333 .40000005 .126 L .41000004 .126 L .41000004 0 L 0 0 L 0 .010000001 Z "/>
</symbol>
<symbol id="font_3_25">
<path d="M .34500004 .68 C .39699999 .68 .4436667 .6706667 .485 .652 C .5263334 .634 .56133338 .60933336 .59000006 .578 C .6193333 .5473333 .64166668 .51133337 .657 .47 C .67300006 .42933334 .68100008 .3866667 .68100008 .342 C .68100008 .292 .6716667 .24599999 .65300008 .20400001 C .63500007 .16200002 .6100001 .126 .578 .096 C .546 .06600001 .5086667 .042333336 .46600003 .025000003 C .42400003 .008333334 .37900005 0 .33100004 0 C .2796667 0 .23333335 .009333334 .19200002 .028 C .15133335 .04666667 .116666678 .07133334 .088 .102000009 C .060000004 .13266668 .038333339 .16800003 .023000002 .20800002 C .0076666676 .24800001 0 .28966669 0 .333 C 0 .3756667 .0076666676 .41766668 .023000002 .45900003 C .038333339 .501 .06066667 .53833338 .09 .57100006 C .120000008 .6036667 .15633334 .63000008 .19900002 .65000006 C .24166668 .67 .29033337 .68 .34500004 .68 M .344 .035 C .38866667 .037 .42766667 .047000003 .46100004 .065000008 C .49500004 .083666678 .5233334 .107 .546 .135 C .5686667 .16366668 .58533337 .19500001 .596 .22900002 C .60733339 .263 .61300006 .29666666 .61300006 .33 C .61300006 .36666668 .6063334 .4036667 .59300008 .441 C .5796667 .47833336 .5606667 .512 .536 .542 C .51133337 .57266667 .48166669 .5973334 .44700004 .616 C .41300003 .63533338 .3746667 .64500007 .33200003 .64500007 C .29066668 .64500007 .25366668 .63566669 .22100002 .61700007 C .18833335 .59900006 .16033334 .57566669 .13700001 .547 C .11433333 .5183334 .097 .48633335 .08500001 .451 C .07300001 .41566668 .067 .381 .067 .347 C .067 .31033335 .074 .27333335 .088 .23600002 C .102000009 .19933336 .12133334 .16600001 .14600002 .136 C .17066668 .106000009 .19966668 .08166667 .23300001 .063 C .267 .044333336 .30400003 .035 .344 .035 Z "/>
</symbol>
<symbol id="font_3_30">
<path d="M .414 .185 C .414 .15166667 .40733335 .123 .394 .09900001 C .38066665 .07566667 .36333335 .056666674 .342 .042000005 C .32133333 .027333335 .29766668 .016666668 .271 .010000001 C .245 .0033333337 .21900003 0 .19300002 0 C .16633335 0 .14333335 .0026666669 .12400001 .008 C .10466668 .013333335 .08700001 .018333335 .07100001 .023000002 C .06033334 .026333334 .05066667 .029000001 .042 .031000004 C .033333336 .033666668 .024666667 .035 .015999999 .035 L .015999999 .149 L .026 .149 C .026 .123666677 .032333334 .10333335 .044999999 .08800001 C .058333335 .07333333 .07366667 .062000004 .091000009 .054000006 C .10833335 .046000005 .12566668 .04066667 .143 .038000004 C .16033335 .036000004 .17300003 .035 .18100001 .035 C .20966669 .035 .23433335 .039 .255 .047000003 C .27566669 .05566667 .29266668 .06666667 .306 .080000009 C .31933335 .094000007 .329 .10933334 .335 .126 C .34166668 .14266669 .345 .15966667 .345 .17700002 C .345 .199 .34033335 .21733333 .331 .23200001 C .3216667 .24733334 .30933333 .26066665 .294 .27199999 C .27933336 .28333334 .26233337 .293 .24300002 .301 C .22366667 .309 .204 .317 .18400002 .325 C .16133334 .33366666 .13900002 .34266667 .11700001 .352 C .095000009 .36133335 .075333338 .3726667 .058000003 .386 C .04066667 .4 .026666666 .41633336 .015999999 .435 C .005333333 .45433335 0 .47800002 0 .50600007 C 0 .5353334 .005666667 .56066676 .017 .582 C .02833333 .60400006 .043333334 .62200006 .062000004 .63600006 C .08133334 .65000006 .10300001 .6603334 .127 .66700008 C .15166667 .6743334 .17666668 .67800006 .202 .67800006 C .21933334 .67800006 .23566668 .67666676 .251 .674 C .2663333 .6720001 .281 .6693334 .29500003 .66600009 C .30633334 .6633334 .31733335 .6610001 .328 .65900006 C .33866669 .65766677 .349 .65700009 .359 .65700009 L .359 .554 L .349 .554 C .34766666 .58866676 .334 .61200007 .308 .6240001 C .28199999 .6366667 .246 .64300009 .20000002 .64300009 C .17333335 .64300009 .15133335 .6383334 .134 .62900009 C .117333348 .6203334 .10400001 .60933336 .09400001 .596 C .084 .5833333 .077 .5693334 .073 .554 C .06966667 .5393334 .068 .5263334 .068 .51500007 C .068 .49633337 .072000008 .48033334 .08 .467 C .08866668 .4536667 .1 .442 .11400001 .432 C .128 .42200003 .14400001 .413 .16200002 .405 C .18066669 .39699999 .2 .38933335 .22000002 .382 C .24266668 .37333334 .2656667 .364 .289 .354 C .31233336 .344 .333 .33166669 .351 .317 C .36966668 .30233334 .38466669 .28433333 .396 .263 C .408 .24166668 .414 .21566667 .414 .185 Z "/>
</symbol>
<symbol id="font_3_f">
<path d="M 0 .010000001 L .004999999 .010000001 C .010333333 .010000001 .015000001 .011666668 .019000002 .015000001 C .023 .019000002 .026333332 .023666667 .029 .029000001 C .032333334 .034333335 .03466667 .040000004 .036 .046000005 C .038000004 .052000006 .039000006 .05766667 .039000006 .063 L .039000006 .59800007 C .039000006 .6026667 .038000004 .60800006 .036 .614 C .03466667 .62000009 .032333334 .6256667 .029 .63100007 C .026333332 .6363334 .023 .6406667 .019000002 .64400008 C .015000001 .64800009 .010333333 .65000006 .004999999 .65000006 L 0 .65000006 L 0 .66 L .385 .66 L .385 .56700006 L .375 .56700006 C .37366668 .5823334 .3676667 .5956667 .357 .60700008 C .34633336 .619 .3296667 .625 .30700005 .625 L .106000009 .625 L .106000009 .372 L .272 .372 C .28733335 .372 .3 .37666667 .31 .386 C .3206667 .39533333 .32600004 .40633337 .32600004 .41900004 L .33600004 .41900004 L .33600004 .294 L .32600004 .294 C .32600004 .306 .321 .31633333 .311 .32500003 C .301 .33366669 .28800003 .33800004 .272 .33800004 L .106000009 .33800004 L .106000009 .035 L .325 .035 C .33766667 .035 .3486667 .038000004 .35800005 .044000005 C .36733339 .05 .37500004 .057 .38100005 .065000008 C .3876667 .07366667 .39233337 .08266667 .39500005 .09200001 C .3983334 .102000009 .4 .110333349 .40000005 .117000009 L .41000004 .117000009 L .41000004 0 L 0 0 L 0 .010000001 Z "/>
</symbol>
<symbol id="font_3_2f">
<path d="M .136 .010000001 L .141 .010000001 L .141 0 L 0 0 L 0 .010000001 L .004999999 .010000001 C .009666667 .010000001 .014000001 .012000001 .018 .016 C .022000002 .020000002 .025333338 .024666667 .028000005 .030000002 C .031333336 .035333337 .033666668 .041000006 .035000005 .047000003 C .036333335 .05366667 .037 .059666676 .037 .065000008 L .037 .59800007 C .037 .6026667 .036333335 .60800006 .035000005 .614 C .033666668 .62000009 .031333336 .6256667 .028000005 .63100007 C .025333338 .6363334 .022000002 .6406667 .018 .64400008 C .014000001 .64800009 .009666667 .65000006 .004999999 .65000006 L 0 .65000006 L 0 .66 L .17400001 .66 C .24066668 .66 .292 .647 .328 .62100008 C .3646667 .595 .38300003 .5566667 .38300003 .50600007 C .38300003 .48066674 .37866668 .45833335 .37 .439 C .36200003 .42033337 .35100005 .404 .337 .39000003 C .32300005 .37666667 .30633337 .36566667 .287 .35700003 C .26833336 .349 .24833334 .34300003 .22700002 .33900003 L .29900003 .22900002 C .31633333 .20233335 .334 .176 .352 .15 C .37 .12466667 .3876667 .09833334 .40500004 .071 C .4096667 .06433334 .41466666 .057333337 .42000003 .05 C .42600004 .04266667 .432 .036000004 .43800003 .030000002 C .4446667 .024000003 .45133338 .019000002 .458 .015000001 C .4653333 .011666668 .47266666 .010000001 .48000003 .010000001 L .48000003 0 L .43700005 0 C .41033338 0 .38833333 .006333334 .371 .019000002 C .3543333 .032333334 .34033335 .04766667 .329 .065000008 C .29900003 .109000008 .26900003 .15366668 .23900001 .19900002 C .20966667 .24433334 .18033333 .289 .15100001 .333 C .14366667 .33366669 .13566667 .33433334 .127 .335 C .11900001 .33633337 .11133334 .33766667 .104 .33900003 L .104 .065000008 C .104 .059666676 .10466667 .05366667 .106000009 .047000003 C .10733334 .041000006 .10933334 .035333337 .112 .030000002 C .11533334 .024666667 .11866667 .020000002 .12200001 .016 C .126 .012000001 .13066668 .010000001 .136 .010000001 M .104 .62600007 L .104 .372 L .10900001 .372 C .11433333 .37133337 .122666668 .37066666 .134 .37 C .14600002 .37 .16066668 .37 .178 .37 C .19200002 .37 .2066667 .372 .22200002 .37600003 C .23800002 .3806667 .25266669 .388 .26600004 .39800004 C .28 .4086667 .29133336 .42233337 .3 .439 C .30933336 .4556667 .314 .4766667 .314 .50200006 C .314 .5273333 .30900003 .54800006 .29900003 .564 C .28966669 .58 .27633337 .5926667 .259 .60200008 C .24233334 .6113334 .222 .6176667 .19800002 .62100008 C .17400003 .6243334 .14766668 .62600007 .119 .62600007 L .104 .62600007 Z "/>
</symbol>
<symbol id="font_3_3">
<path d="M 0 0 Z "/>
</symbol>
<symbol id="font_3_32">
<path d="M .289 .010000001 L .294 .010000001 L .294 0 L .15200001 0 L .15200001 .010000001 L .157 .010000001 C .16233334 .010000001 .16700001 .012000001 .171 .016 C .175 .020000002 .17833334 .024666667 .18100001 .030000002 C .18433334 .035333337 .18666667 .041000006 .18800001 .047000003 C .18933334 .05366667 .19000001 .059666676 .19000001 .065000008 L .19000001 .623 L .074 .623 C .06333333 .623 .054 .6206667 .046000005 .61600008 C .038000004 .6113334 .031333336 .6053334 .026 .59800007 C .020666667 .5913333 .016666668 .5836667 .014000001 .57500007 C .011333334 .56700006 .010000001 .559 .010000001 .551 L 0 .551 L 0 .66 L .44900004 .66 L .44900004 .551 L .439 .551 C .439 .559 .43766669 .56700006 .43500004 .57500007 C .43233336 .5836667 .42833338 .5913333 .423 .59800007 C .41766668 .6053334 .411 .6113334 .40300004 .61600008 C .395 .6206667 .3856667 .623 .375 .623 L .257 .623 L .257 .065000008 C .257 .059666676 .25766669 .05366667 .259 .047000003 C .26033334 .041000006 .26233337 .035333337 .26500003 .030000002 C .26833336 .024666667 .27166669 .020000002 .275 .016 C .279 .012000001 .2836667 .010000001 .289 .010000001 Z "/>
</symbol>
<symbol id="font_3_17">
<path d="M .43800003 .358 L .58100005 .358 L .58100005 .34800003 L .57600006 .34800003 C .57066676 .34800003 .56600007 .34600006 .56200006 .342 C .558 .33866669 .5546667 .33433334 .55200007 .329 C .5493334 .32366667 .547 .318 .545 .312 C .54366669 .306 .54300007 .30066667 .54300007 .296 L .54300007 .028 C .5310001 .023333336 .5173333 .019333335 .50200006 .016 C .48666669 .012666668 .47066669 .010000001 .45400004 .008 C .43733336 .005333334 .42033337 .0033333339 .40300004 .0020000004 C .3856667 .0006666668 .3696667 0 .35500003 0 C .29500003 0 .24266668 .010000001 .19800002 .030000002 C .15333335 .05 .11633334 .076000008 .087000008 .108 C .05766667 .14066668 .03566667 .17733334 .021000002 .21800001 C .0070000009 .25866667 0 .29966668 0 .34100003 C 0 .38233338 .0070000009 .42333333 .021000002 .46400003 C .03566667 .5046667 .05766667 .54100009 .087000008 .573 C .11700001 .605 .15433336 .6306667 .19900002 .65000006 C .24433334 .67 .298 .68 .36 .68 C .38333337 .68 .405 .678 .425 .674 C .44500003 .6700001 .46266667 .6663334 .47800005 .66300007 C .48666669 .661 .494 .659 .5 .657 C .5066667 .65566667 .5123334 .65500006 .517 .65500006 L .526 .65500006 L .526 .549 L .51600006 .549 C .512 .5696667 .504 .58633336 .49200005 .59900006 C .48066674 .6116667 .46733336 .62133339 .45200003 .628 C .4366667 .6346667 .42033337 .639 .40300004 .64100006 C .38633336 .6436667 .37066666 .64500007 .356 .64500007 C .30600003 .64500007 .26266668 .63600006 .22600001 .61800006 C .18933334 .6006667 .15933334 .578 .136 .55 C .112666677 .522 .09533334 .49033336 .08400001 .455 C .07266667 .42033337 .067 .3856667 .067 .351 C .067 .31233336 .07433333 .27400003 .089 .23600002 C .10366666 .19866668 .124333348 .165 .15100001 .135 C .17766668 .10566667 .20966669 .08166667 .24700001 .063 C .285 .045 .32700003 .036000004 .37300004 .036000004 C .3856667 .036000004 .40133334 .037333337 .42000003 .040000004 C .43866668 .043333338 .45733334 .050333337 .476 .061000006 L .476 .296 C .47599999 .30066667 .47533337 .306 .47400005 .312 C .47266666 .318 .47033335 .32366667 .467 .329 C .46433334 .33433334 .461 .33866669 .45700003 .342 C .45300005 .34600006 .44833336 .34800003 .44300003 .34800003 L .43800003 .34800003 L .43800003 .358 Z "/>
</symbol>
<symbol id="font_3_18">
<path d="M .38700003 .010000001 L .39200003 .010000001 C .39666669 .010000001 .40100003 .011666668 .405 .015000001 C .409 .019000002 .41233335 .023666667 .41500003 .029000001 C .41833339 .035 .4206667 .041000006 .42200003 .047000003 C .42333339 .05366667 .42400003 .059666676 .42400003 .065000008 L .42400003 .337 L .10400001 .337 L .10400001 .065000008 C .10400001 .059666676 .10466667 .05366667 .106 .047000003 C .10733333 .041000006 .10933334 .035333337 .11200001 .030000002 C .11466667 .024666667 .11766667 .020000002 .121 .016 C .125 .012000001 .12966667 .010000001 .13499999 .010000001 L .14000002 .010000001 L .14000002 0 L 0 0 L 0 .010000001 L .004999999 .010000001 C .009666667 .010000001 .014000001 .011666668 .018 .015000001 C .021999998 .019000002 .02533333 .023666667 .027999998 .029000001 C .03133333 .035 .033666668 .041000006 .035000005 .047000003 C .036333335 .05366667 .037 .059666676 .037 .065000008 L .037 .59800007 C .037 .6026667 .036333335 .60800006 .035000005 .614 C .033666668 .62000009 .031666668 .6256667 .029 .63100007 C .026333332 .6363334 .023 .6406667 .019000002 .64400008 C .014999998 .64800009 .01033333 .65000006 .004999999 .65000006 L 0 .65000006 L 0 .66 L .14000002 .66 L .14000002 .65000006 L .13499999 .65000006 C .12966667 .65000006 .125 .64800009 .121 .64400008 C .117000009 .6406667 .113666679 .6363334 .11100001 .63100007 C .109000008 .6256667 .10733333 .62000009 .106 .614 C .10466667 .60800006 .10400001 .6026667 .10400001 .59800007 L .10400001 .372 L .42400003 .372 L .42400003 .59800007 C .42400003 .6026667 .42333339 .60800006 .42200003 .614 C .4206667 .62000009 .4186667 .6256667 .416 .63100007 C .41333334 .6363334 .41 .6406667 .40600003 .64400008 C .40200005 .64800009 .39733336 .65000006 .39200003 .65000006 L .38700003 .65000006 L .38700003 .66 L .52700009 .66 L .52700009 .65000006 L .5220001 .65000006 C .5166667 .65000006 .512 .64800009 .508 .64400008 C .504 .6406667 .5006667 .6363334 .498 .63100007 C .49600003 .6256667 .49433337 .62000009 .493 .614 C .49166668 .60800006 .49100004 .6026667 .49100004 .59800007 L .49100004 .065000008 C .49100004 .059666676 .49166668 .05366667 .493 .047000003 C .495 .041000006 .49733339 .035333337 .50000008 .030000002 C .5026667 .024666667 .50566676 .020000002 .50900009 .016 C .5130001 .012000001 .5173334 .010000001 .5220001 .010000001 L .52700009 .010000001 L .52700009 0 L .38700003 0 L .38700003 .010000001 Z "/>
</symbol>
<use xlink:href="#font_3_b" transform="matrix(18.480828,0,0,-18.480828,79.120029,217.25403)" fill="#606872"/>
<use xlink:href="#font_3_20" transform="matrix(18.480828,0,0,-18.480828,94.53296,217.06922)" fill="#606872"/>
<use xlink:href="#font_3_25" transform="matrix(18.480828,0,0,-18.480828,106.76723,217.25403)" fill="#606872"/>
<use xlink:href="#font_3_30" transform="matrix(18.480828,0,0,-18.480828,124.60114,217.21706)" fill="#606872"/>
<use xlink:href="#font_3_f" transform="matrix(18.480828,0,0,-18.480828,137.61159,217.06922)" fill="#606872"/>
<use xlink:href="#font_3_2f" transform="matrix(18.480828,0,0,-18.480828,150.36331,217.06922)" fill="#606872"/>
<use xlink:href="#font_3_3" transform="matrix(18.480828,0,0,-18.480828,163.29984,217.06922)" fill="#606872"/>
<use xlink:href="#font_3_32" transform="matrix(18.480828,0,0,-18.480828,172.05976,217.06922)" fill="#606872"/>
<use xlink:href="#font_3_25" transform="matrix(18.480828,0,0,-18.480828,185.01476,217.25403)" fill="#606872"/>
<use xlink:href="#font_3_17" transform="matrix(18.480828,0,0,-18.480828,202.86717,217.25403)" fill="#606872"/>
<use xlink:href="#font_3_f" transform="matrix(18.480828,0,0,-18.480828,218.94544,217.06922)" fill="#606872"/>
<use xlink:href="#font_3_32" transform="matrix(18.480828,0,0,-18.480828,231.03183,217.06922)" fill="#606872"/>
<use xlink:href="#font_3_18" transform="matrix(18.480828,0,0,-18.480828,244.35648,217.06922)" fill="#606872"/>
<use xlink:href="#font_3_f" transform="matrix(18.480828,0,0,-18.480828,259.41828,217.06922)" fill="#606872"/>
<use xlink:href="#font_3_2f" transform="matrix(18.480828,0,0,-18.480828,272.16999,217.06922)" fill="#606872"/>
<g id="Layer-1" data-name="P">
</g>
<symbol id="font_4_60">
<path d="M .53700008 0 L .53700008 .374 L .41800005 .11100001 L .314 .11100001 L .19500001 .374 L .19500001 0 L 0 0 L 0 .71000006 L .21300002 .71000006 L .366 .37600003 L .52000007 .71000006 L .73200008 .71000006 L .73200008 0 L .53700008 0 Z "/>
</symbol>
<symbol id="font_4_46">
<path d="M 0 0 L 0 .71000006 L .19500001 .71000006 L .19500001 0 L 0 0 Z "/>
</symbol>
<symbol id="font_4_88">
<path d="M .60400006 .54 L .40000005 .54 L .40000005 0 L .205 0 L .205 .54 L 0 .54 L 0 .71000006 L .60400006 .71000006 L .60400006 .54 Z "/>
</symbol>
<symbol id="font_4_9b">
<path d="M .29900003 .71000006 L .47800002 .71000006 L .54 .49100004 L .603 .71000006 L .782 .71000006 L .665 .37100003 L .716 .223 L .869 .71000006 L 1.0810001 .71000006 L .80300006 0 L .64100006 0 L .54 .254 L .44000004 0 L .27800004 0 L 0 .71000006 L .21100001 .71000006 L .365 .223 L .41400004 .37100003 L .29900003 .71000006 Z "/>
</symbol>
<symbol id="font_4_6a">
<path d="M .33900003 0 C .28833334 0 .242 .010333333 .2 .031 C .15866667 .051666667 .123 .078666668 .093 .112 C .06366667 .14600002 .04066667 .18466668 .024 .22800002 C .008 .27133335 0 .316 0 .36200003 C 0 .4086667 .008333333 .4536667 .024999999 .49700005 C .042333336 .54033336 .06633333 .5783334 .097 .611 C .12766667 .64433339 .16366668 .6706667 .20500002 .69 C .24700003 .71000006 .293 .72 .34300003 .72 C .3936667 .72 .43966667 .7096667 .481 .689 C .523 .66833338 .5586667 .641 .588 .607 C .61800006 .573 .64100006 .53433337 .657 .49100004 C .67300006 .44766668 .68100008 .40333335 .68100008 .35800005 C .68100008 .31133337 .6723334 .26633335 .65500006 .223 C .6383334 .18033333 .61500009 .14233335 .58500006 .109000008 C .555 .07633334 .519 .05 .477 .030000002 C .43500004 .010000001 .38900004 0 .33900003 0 M .19800002 .36 C .19800002 .33600006 .20066668 .31266669 .20600002 .29000003 C .21200001 .26800005 .221 .24833335 .23300001 .231 C .245 .21366668 .26000003 .19966668 .27800004 .18900001 C .296 .17833334 .317 .17300003 .34100003 .17300001 C .36566673 .17300003 .387 .17833334 .40500004 .18900001 C .423 .20033334 .43766669 .21466667 .44900004 .23200001 C .46033336 .25000004 .46866668 .27033339 .474 .293 C .48000003 .31566669 .48300005 .33866669 .48300005 .36200003 C .48300005 .38600005 .48000003 .40900005 .474 .43100003 C .46800003 .4536667 .45900003 .47333337 .44700004 .49000005 C .43566669 .50733336 .421 .521 .40300004 .531 C .38500003 .5416667 .364 .547 .34 .547 C .31533335 .547 .294 .5416667 .27600003 .531 C .25866667 .52033337 .244 .506 .23200003 .48800005 C .22066669 .47066675 .21200001 .4506667 .20600002 .42800004 C .20066668 .40600006 .19800002 .38333337 .19800002 .36 Z "/>
</symbol>
<symbol id="font_4_1a">
<path d="M 0 .36700005 C 0 .4103334 .0076666667 .45300005 .023 .49500004 C .038333339 .537 .06066667 .5746667 .09 .60800006 C .120000008 .64133337 .156 .66833338 .19800002 .689 C .24066668 .7096667 .289 .72 .343 .72 C .40633334 .72 .46166668 .7056667 .509 .677 C .55633339 .649 .5913334 .6116667 .614 .565 L .465 .45900003 C .459 .47633339 .451 .49066673 .441 .50200006 C .4316667 .5133333 .42133335 .5223333 .41 .529 C .39866666 .5356667 .3866667 .54033336 .374 .543 C .36133335 .54566666 .34966669 .547 .33900003 .547 C .31433333 .547 .29299999 .5413334 .275 .53000006 C .25766669 .51933339 .24300003 .50500008 .23100002 .48700006 C .21966668 .46966673 .21133335 .4496667 .20600002 .42700006 C .20066668 .40500007 .19800002 .38300003 .19800002 .36100004 C .19800002 .33633337 .20100002 .31266669 .20700002 .29000003 C .21366668 .26733337 .223 .24733335 .235 .23 C .24766667 .21266668 .26266668 .19866668 .28 .18800001 C .298 .17800002 .31833337 .17300003 .341 .17300001 C .35233335 .17300003 .364 .17433334 .37600003 .177 C .388 .18033333 .39933334 .18533333 .41 .192 C .42133335 .19933336 .43133334 .20833333 .44 .21900001 C .44933335 .23033333 .45666669 .244 .462 .26000003 L .621 .165 C .611 .139 .59566667 .115666668 .575 .095 C .555 .07433333 .532 .057 .506 .043 C .48000003 .029 .45233334 .018333333 .423 .011 C .39366666 .0036666666 .365 0 .337 0 C .28766669 0 .24233334 .010333333 .201 .031 C .15966667 .052333338 .12400001 .08033333 .094000007 .115 C .064666669 .14966668 .04166667 .18900001 .025 .23300001 C .008333334 .27700005 0 .3216667 0 .36700005 Z "/>
</symbol>
<symbol id="font_4_42">
<path d="M .628 .71000006 L .628 0 L .43300004 0 L .43300004 .27800004 L .19500001 .27800004 L .19500001 0 L 0 0 L 0 .71000006 L .19500001 .71000006 L .19500001 .448 L .43300004 .448 L .43300004 .71000006 L .628 .71000006 Z "/>
</symbol>
<use xlink:href="#font_4_60" transform="matrix(64.2,0,0,-64.2,11.347353,194.75327)" fill="#ffcf48"/>
<use xlink:href="#font_4_46" transform="matrix(64.2,0,0,-64.2,66.170108,194.75327)" fill="#ffcf48"/>
<use xlink:href="#font_4_88" transform="matrix(64.2,0,0,-64.2,83.24582,194.75327)" fill="#ffcf48"/>
<use xlink:href="#font_4_88" transform="matrix(64.2,0,0,-64.2,123.30368,194.75327)" fill="#ffcf48"/>
<use xlink:href="#font_4_9b" transform="matrix(64.2,0,0,-64.2,162.0133,194.75327)" fill="#ffcf48"/>
<use xlink:href="#font_4_6a" transform="matrix(64.2,0,0,-64.2,232.17887,195.13846)" fill="#ffcf48"/>
<use xlink:href="#font_4_1a" transform="matrix(64.2,0,0,-64.2,278.78468,195.13846)" fill="#ffcf48"/>
<use xlink:href="#font_4_42" transform="matrix(64.2,0,0,-64.2,323.33638,194.75327)" fill="#ffcf48"/>
</g>
</g>
</svg>
