<svg version="1.1" xmlns="http://www.w3.org/2000/svg" xmlns:xlink="http://www.w3.org/1999/xlink" viewBox="0 0 172 172"><g fill="none" fill-rule="nonzero" stroke="none" stroke-width="1" stroke-linecap="butt" stroke-linejoin="miter" stroke-miterlimit="10" stroke-dasharray="" stroke-dashoffset="0" font-family="none" font-weight="none" font-size="none" text-anchor="none" style="mix-blend-mode: normal"><path d="M0,172v-172h172v172z" fill="none"></path><g fill="#ffcf48"><path d="M75.25,21.5c-8.86035,0 -15.41114,7.43261 -16.125,15.70508c-0.5459,6.88672 -5.12304,30.78027 -5.20703,31.32617l-10.1621,27.79883c-0.16797,0.25195 -0.41993,0.41992 -0.75586,0.41992v-5.375c0,-2.98145 -2.39355,-5.375 -5.375,-5.375h-26.875v10.75h21.5v43h-21.5v10.75h26.875c2.98145,0 5.375,-2.39355 5.375,-5.375v-5.375h15.70508c8.86034,0 16.83886,-4.2832 21.91992,-10.91797c5.08105,6.63477 13.05957,10.91797 21.91993,10.91797h15.70507v5.375c0,2.98145 2.39355,5.375 5.375,5.375h26.875v-10.75h-21.5v-43h21.5v-10.75h-26.875c-2.98145,0 -5.375,2.39355 -5.375,5.375c-0.37793,0 -0.62989,-0.16797 -0.83984,-0.46192l-10.12011,-22.67578c-0.16797,-0.92382 -4.61915,-24.22949 -5.16504,-31.03222c-0.71386,-8.27247 -7.26465,-15.70508 -16.125,-15.70508c-1.84766,0 -3.69531,0.46192 -5.375,1.34375c-1.67969,-0.88183 -3.52734,-1.34375 -5.375,-1.34375zM75.08203,32.45996c0.08399,0.79785 0.16797,2.47754 0.16797,5.16504v77.60156c-1.51172,7.97852 -8.35645,13.77344 -16.54492,13.77344h-15.70508v-21.5c4.24121,0 8.14649,-2.30957 10.24609,-5.96289l0.16797,-0.41993l10.91797,-29.81445l0.08399,-0.41993c0,0 4.66112,-23.51562 5.45898,-32.83789c0.25196,-3.40138 2.35156,-5.417 5.20703,-5.58497zM86.16797,32.45996c2.85547,0.16797 4.95508,2.18359 5.20703,5.58497c0.79785,9.32226 5.45899,32.83789 5.45899,32.83789l0.12597,0.62989l10.95997,24.39746l0.08398,0.25196c2.09961,3.65331 6.00489,5.96289 10.24609,5.96289v26.875h-15.70507c-8.18848,0 -15.03321,-5.79492 -16.54493,-13.77344v-77.60156c0,-2.6875 0.08399,-4.36719 0.16797,-5.16504z"></path></g></g></svg>